<svg version="1.1" viewBox="0.0 0.0 960.0 540.0" fill="none" stroke="none" stroke-linecap="square" stroke-miterlimit="10" xmlns:xlink="http://www.w3.org/1999/xlink" xmlns="http://www.w3.org/2000/svg"><clipPath id="p.0"><path d="m0 0l960.0 0l0 540.0l-960.0 0l0 -540.0z" clip-rule="nonzero"/></clipPath><g clip-path="url(#p.0)"><path fill="#212121" d="m0 0l960.0 0l0 540.0l-960.0 0z" fill-rule="evenodd"/><path fill="#000000" fill-opacity="0.0" d="m32.72441 107.18372l894.55115 0l0 190.3937l-894.55115 0z" fill-rule="evenodd"/><path fill="#ffffff" d="m412.15652 188.73743l0 -49.625l17.09375 0q5.796875 0 8.84375 0.703125q4.265625 0.984375 7.28125 3.5625q3.921875 3.3125 5.859375 8.484375q1.953125 5.15625 1.953125 11.796875q0 5.640625 -1.328125 10.015625q-1.3125 4.359375 -3.375 7.234375q-2.0625 2.859375 -4.515625 4.5q-2.453125 1.640625 -5.921875 2.484375q-3.46875 0.84375 -7.984375 0.84375l-17.90625 0zm6.578125 -5.859375l10.59375 0q4.90625 0 7.6875 -0.90625q2.796875 -0.921875 4.46875 -2.578125q2.328125 -2.328125 3.625 -6.265625q1.3125 -3.953125 1.3125 -9.578125q0 -7.78125 -2.5625 -11.953125q-2.546875 -4.1875 -6.203125 -5.609375q-2.640625 -1.015625 -8.5 -1.015625l-10.421875 0l0 37.90625zm40.44156 -12.109375q0 -10.0 5.5625 -14.796875q4.625 -4.0 11.296875 -4.0q7.421875 0 12.125 4.859375q4.703125 4.859375 4.703125 13.421875q0 6.9375 -2.078125 10.921875q-2.078125 3.96875 -6.0625 6.171875q-3.984375 2.203125 -8.6875 2.203125q-7.546875 0 -12.203125 -4.84375q-4.65625 -4.84375 -4.65625 -13.9375zm6.265625 0q0 6.90625 3.015625 10.34375q3.015625 3.421875 7.578125 3.421875q4.546875 0 7.546875 -3.453125q3.015625 -3.453125 3.015625 -10.515625q0 -6.671875 -3.03125 -10.109375q-3.03125 -3.4375 -7.53125 -3.4375q-4.5625 0 -7.578125 3.421875q-3.015625 3.421875 -3.015625 10.328125zm34.557007 17.96875l0 -35.953125l5.453125 0l0 5.046875q1.703125 -2.640625 4.5 -4.25q2.8125 -1.609375 6.40625 -1.609375q4.0 0 6.546875 1.65625q2.5625 1.65625 3.609375 4.640625q4.265625 -6.296875 11.09375 -6.296875q5.359375 0 8.234375 2.96875q2.875 2.953125 2.875 9.125l0 24.671875l-6.0625 0l0 -22.640625q0 -3.65625 -0.59375 -5.265625q-0.59375 -1.609375 -2.15625 -2.59375q-1.546875 -0.984375 -3.640625 -0.984375q-3.796875 0 -6.296875 2.53125q-2.5 2.515625 -2.5 8.0625l0 20.890625l-6.09375 0l0 -23.359375q0 -4.0625 -1.5 -6.09375q-1.484375 -2.03125 -4.875 -2.03125q-2.5625 0 -4.75 1.359375q-2.1875 1.34375 -3.171875 3.953125q-0.984375 2.609375 -0.984375 7.515625l0 18.65625l-6.09375 0z" fill-rule="nonzero"/><path fill="#ffffff" d="m382.7089 280.07803q-2.8125 -3.546875 -4.765625 -8.296875q-1.9375 -4.765625 -1.9375 -9.859375q0 -4.5 1.453125 -8.60936q1.703125 -4.78125 5.25 -9.515625l2.421875 0q-2.28125 3.921875 -3.015625 5.609375q-1.15625 2.59375 -1.8125 5.4375q-0.8125 3.5156097 -0.8125 7.0937347q0 9.078125 5.640625 18.140625l-2.421875 0zm7.3415833 -8.140625l0 -3.875l3.859375 0l0 3.875l-3.859375 0zm10.73996 0l0 -3.875l3.859375 0l0 3.875l-3.859375 0zm10.739929 0l0 -3.875l3.859375 0l0 3.875l-3.859375 0zm10.208679 0l0 -27.67186l9.53125 0q3.21875 0 4.921875 0.390625q2.375 0.546875 4.0625 1.984375q2.1875 1.859375 3.265625 4.734375q1.09375 2.875 1.09375 6.5781097q0 3.15625 -0.734375 5.59375q-0.734375 2.421875 -1.890625 4.015625q-1.15625 1.59375 -2.53125 2.515625q-1.359375 0.921875 -3.296875 1.390625q-1.921875 0.46875 -4.4375 0.46875l-9.984375 0zm3.65625 -3.265625l5.90625 0q2.734375 0 4.296875 -0.5q1.5625 -0.515625 2.484375 -1.4375q1.296875 -1.3125 2.015625 -3.5q0.734375 -2.203125 0.734375 -5.34375q0 -4.3437347 -1.421875 -6.6718597q-1.421875 -2.328125 -3.46875 -3.125q-1.46875 -0.5625 -4.734375 -0.5625l-5.8125 0l0 21.14061zm22.556946 -6.75q0 -5.578125 3.09375 -8.249985q2.59375 -2.234375 6.3125 -2.234375q4.125 0 6.75 2.71875q2.625 2.7031097 2.625 7.4687347q0 3.875 -1.15625 6.09375q-1.15625 2.21875 -3.375 3.453125q-2.21875 1.21875 -4.84375 1.21875q-4.21875 0 -6.8125 -2.6875q-2.59375 -2.703125 -2.59375 -7.78125zm3.5 0q0 3.84375 1.671875 5.765625q1.6875 1.90625 4.234375 1.90625q2.53125 0 4.203125 -1.921875q1.6875 -1.921875 1.6875 -5.875q0 -3.71875 -1.703125 -5.625q-1.6875 -1.9218597 -4.1875 -1.9218597q-2.546875 0 -4.234375 1.9062347q-1.671875 1.90625 -1.671875 5.765625zm19.264404 10.015625l0 -20.04686l3.046875 0l0 2.8125q0.9375 -1.46875 2.5 -2.359375q1.578125 -0.90625 3.578125 -0.90625q2.21875 0 3.640625 0.921875q1.4375 0.921875 2.015625 2.59375q2.375 -3.515625 6.1875 -3.515625q2.984375 0 4.578125 1.65625q1.609375 1.65625 1.609375 5.0781097l0 13.765625l-3.375 0l0 -12.625q0 -2.046875 -0.328125 -2.9375q-0.328125 -0.89060974 -1.203125 -1.4374847q-0.859375 -0.546875 -2.03125 -0.546875q-2.109375 0 -3.515625 1.40625q-1.390625 1.4062347 -1.390625 4.4999847l0 11.640625l-3.40625 0l0 -13.03125q0 -2.25 -0.828125 -3.3749847q-0.828125 -1.140625 -2.71875 -1.140625q-1.4375 0 -2.65625 0.75q-1.203125 0.75 -1.75 2.2031097q-0.546875 1.453125 -0.546875 4.1875l0 10.40625l-3.40625 0zm43.378387 0l0 -27.67186l9.53125 0q3.21875 0 4.921875 0.390625q2.375 0.546875 4.0625 1.984375q2.1875 1.859375 3.265625 4.734375q1.09375 2.875 1.09375 6.5781097q0 3.15625 -0.734375 5.59375q-0.734375 2.421875 -1.890625 4.015625q-1.15625 1.59375 -2.53125 2.515625q-1.359375 0.921875 -3.296875 1.390625q-1.921875 0.46875 -4.4375 0.46875l-9.984375 0zm3.65625 -3.265625l5.90625 0q2.734375 0 4.296875 -0.5q1.5625 -0.515625 2.484375 -1.4375q1.296875 -1.3125 2.015625 -3.5q0.734375 -2.203125 0.734375 -5.34375q0 -4.3437347 -1.421875 -6.6718597q-1.421875 -2.328125 -3.46875 -3.125q-1.46875 -0.5625 -4.734375 -0.5625l-5.8125 0l0 21.14061zm22.556946 -6.75q0 -5.578125 3.09375 -8.249985q2.59375 -2.234375 6.3125 -2.234375q4.125 0 6.75 2.71875q2.625 2.7031097 2.625 7.4687347q0 3.875 -1.15625 6.09375q-1.15625 2.21875 -3.375 3.453125q-2.21875 1.21875 -4.84375 1.21875q-4.21875 0 -6.8125 -2.6875q-2.59375 -2.703125 -2.59375 -7.78125zm3.5 0q0 3.84375 1.671875 5.765625q1.6875 1.90625 4.234375 1.90625q2.53125 0 4.203125 -1.921875q1.6875 -1.921875 1.6875 -5.875q0 -3.71875 -1.703125 -5.625q-1.6875 -1.9218597 -4.1875 -1.9218597q-2.546875 0 -4.234375 1.9062347q-1.671875 1.90625 -1.671875 5.765625zm19.264404 10.015625l0 -20.04686l3.046875 0l0 2.8125q0.9375 -1.46875 2.5 -2.359375q1.578125 -0.90625 3.578125 -0.90625q2.21875 0 3.640625 0.921875q1.4375 0.921875 2.015625 2.59375q2.375 -3.515625 6.1875 -3.515625q2.984375 0 4.578125 1.65625q1.609375 1.65625 1.609375 5.0781097l0 13.765625l-3.375 0l0 -12.625q0 -2.046875 -0.328125 -2.9375q-0.328125 -0.89060974 -1.203125 -1.4374847q-0.859375 -0.546875 -2.03125 -0.546875q-2.109375 0 -3.515625 1.40625q-1.390625 1.4062347 -1.390625 4.4999847l0 11.640625l-3.40625 0l0 -13.03125q0 -2.25 -0.828125 -3.3749847q-0.828125 -1.140625 -2.71875 -1.140625q-1.4375 0 -2.65625 0.75q-1.203125 0.75 -1.75 2.2031097q-0.546875 1.453125 -0.546875 4.1875l0 10.40625l-3.40625 0zm34.435364 8.140625l-2.4375 0q5.640625 -9.0625 5.640625 -18.140625q0 -3.546875 -0.8125 -7.0468597q-0.640625 -2.828125 -1.796875 -5.4375q-0.734375 -1.6875 -3.03125 -5.65625l2.4375 0q3.546875 4.734375 5.234375 9.515625q1.453125 4.1093597 1.453125 8.60936q0 5.09375 -1.953125 9.859375q-1.953125 4.75 -4.734375 8.296875z" fill-rule="nonzero"/><path fill="#000000" fill-opacity="0.0" d="m32.72441 297.54593l894.55115 0l0 83.212616l-894.55115 0z" fill-rule="evenodd"/><path fill="#adadad" d="m348.8068 335.29218l3.21875 0.421875q-0.515625 3.34375 -2.703125 5.234375q-2.171875 1.875 -5.34375 1.875q-3.984375 0 -6.40625 -2.59375q-2.40625 -2.59375 -2.40625 -7.453125q0 -3.125 1.03125 -5.46875q1.046875 -2.359375 3.171875 -3.53125q2.125 -1.1875 4.625 -1.1875q3.15625 0 5.15625 1.59375q2.0 1.59375 2.578125 4.53125l-3.203125 0.5q-0.453125 -1.953125 -1.609375 -2.9375q-1.15625 -0.984375 -2.796875 -0.984375q-2.484375 0 -4.03125 1.78125q-1.546875 1.765625 -1.546875 5.609375q0 3.90625 1.484375 5.671875q1.5 1.765625 3.90625 1.765625q1.9375 0 3.234375 -1.171875q1.296875 -1.1875 1.640625 -3.65625zm4.8046875 -2.578125q0 -5.390625 3.0 -7.96875q2.484375 -2.15625 6.078125 -2.15625q4.0 0 6.53125 2.625q2.53125 2.609375 2.53125 7.21875q0 3.734375 -1.125 5.875q-1.109375 2.140625 -3.265625 3.328125q-2.140625 1.1875 -4.671875 1.1875q-4.0625 0 -6.578125 -2.609375q-2.5 -2.609375 -2.5 -7.5zm3.375 0q0 3.71875 1.625 5.5625q1.625 1.84375 4.078125 1.84375q2.453125 0 4.0625 -1.859375q1.625 -1.859375 1.625 -5.65625q0 -3.59375 -1.640625 -5.4375q-1.625 -1.859375 -4.046875 -1.859375q-2.453125 0 -4.078125 1.84375q-1.625 1.84375 -1.625 5.5625zm18.603882 9.671875l0 -19.359375l2.953125 0l0 2.75q2.140625 -3.1875 6.171875 -3.1875q1.75 0 3.21875 0.640625q1.46875 0.625 2.1875 1.640625q0.734375 1.015625 1.03125 2.421875q0.171875 0.90625 0.171875 3.1875l0 11.90625l-3.28125 0l0 -11.78125q0 -2.0 -0.390625 -2.984375q-0.375 -1.0 -1.359375 -1.59375q-0.96875 -0.59375 -2.28125 -0.59375q-2.09375 0 -3.625 1.328125q-1.515625 1.328125 -1.515625 5.046875l0 10.578125l-3.28125 0zm33.400757 -7.09375l3.21875 0.421875q-0.515625 3.34375 -2.703125 5.234375q-2.171875 1.875 -5.34375 1.875q-3.984375 0 -6.40625 -2.59375q-2.40625 -2.59375 -2.40625 -7.453125q0 -3.125 1.03125 -5.46875q1.046875 -2.359375 3.171875 -3.53125q2.125 -1.1875 4.625 -1.1875q3.15625 0 5.15625 1.59375q2.0 1.59375 2.578125 4.53125l-3.203125 0.5q-0.453125 -1.953125 -1.609375 -2.9375q-1.15625 -0.984375 -2.796875 -0.984375q-2.484375 0 -4.03125 1.78125q-1.546875 1.765625 -1.546875 5.609375q0 3.90625 1.484375 5.671875q1.5 1.765625 3.90625 1.765625q1.9375 0 3.234375 -1.171875q1.296875 -1.1875 1.640625 -3.65625zm19.289062 0.859375l3.375 0.421875q-0.796875 2.96875 -2.96875 4.609375q-2.15625 1.640625 -5.53125 1.640625q-4.25 0 -6.75 -2.609375q-2.484375 -2.625 -2.484375 -7.34375q0 -4.890625 2.515625 -7.578125q2.515625 -2.703125 6.53125 -2.703125q3.890625 0 6.34375 2.640625q2.453125 2.640625 2.453125 7.4375q0 0.296875 -0.015625 0.875l-14.4375 0q0.1875 3.1875 1.8125 4.890625q1.625 1.6875 4.046875 1.6875q1.796875 0 3.078125 -0.9375q1.28125 -0.953125 2.03125 -3.03125zm-10.78125 -5.296875l10.8125 0q-0.21875 -2.453125 -1.234375 -3.671875q-1.578125 -1.890625 -4.078125 -1.890625q-2.25 0 -3.796875 1.515625q-1.53125 1.5 -1.703125 4.046875zm18.307007 -11.421875l0 -3.765625l3.28125 0l0 3.765625l-3.28125 0zm0 22.953125l0 -19.359375l3.28125 0l0 19.359375l-3.28125 0zm15.433746 -2.9375l0.46875 2.90625q-1.375 0.28125 -2.46875 0.28125q-1.796875 0 -2.78125 -0.5625q-0.984375 -0.5625 -1.390625 -1.484375q-0.390625 -0.921875 -0.390625 -3.875l0 -11.140625l-2.40625 0l0 -2.546875l2.40625 0l0 -4.796875l3.265625 -1.96875l0 6.765625l3.296875 0l0 2.546875l-3.296875 0l0 11.328125q0 1.40625 0.171875 1.8125q0.171875 0.390625 0.5625 0.625q0.390625 0.234375 1.125 0.234375q0.546875 0 1.4375 -0.125zm1.9803162 -6.734375q0 -5.390625 3.0 -7.96875q2.484375 -2.15625 6.078125 -2.15625q4.0 0 6.53125 2.625q2.53125 2.609375 2.53125 7.21875q0 3.734375 -1.125 5.875q-1.109375 2.140625 -3.265625 3.328125q-2.140625 1.1875 -4.671875 1.1875q-4.0625 0 -6.578125 -2.609375q-2.5 -2.609375 -2.5 -7.5zm3.375 0q0 3.71875 1.625 5.5625q1.625 1.84375 4.078125 1.84375q2.453125 0 4.0625 -1.859375q1.625 -1.859375 1.625 -5.65625q0 -3.59375 -1.640625 -5.4375q-1.625 -1.859375 -4.046875 -1.859375q-2.453125 0 -4.078125 1.84375q-1.625 1.84375 -1.625 5.5625zm42.24048 3.4375l3.375 0.421875q-0.796875 2.96875 -2.96875 4.609375q-2.15625 1.640625 -5.53125 1.640625q-4.25 0 -6.75 -2.609375q-2.484375 -2.625 -2.484375 -7.34375q0 -4.890625 2.515625 -7.578125q2.515625 -2.703125 6.53125 -2.703125q3.890625 0 6.34375 2.640625q2.453125 2.640625 2.453125 7.4375q0 0.296875 -0.015625 0.875l-14.4375 0q0.1875 3.1875 1.8125 4.890625q1.625 1.6875 4.046875 1.6875q1.796875 0 3.078125 -0.9375q1.28125 -0.953125 2.03125 -3.03125zm-10.78125 -5.296875l10.8125 0q-0.21875 -2.453125 -1.234375 -3.671875q-1.578125 -1.890625 -4.078125 -1.890625q-2.25 0 -3.796875 1.515625q-1.53125 1.5 -1.703125 4.046875zm28.646759 18.953125l0 -26.78125l3.0 0l0 2.515625q1.046875 -1.46875 2.375 -2.203125q1.34375 -0.75 3.234375 -0.75q2.484375 0 4.375 1.28125q1.890625 1.265625 2.859375 3.59375q0.96875 2.328125 0.96875 5.09375q0 2.96875 -1.0625 5.359375q-1.0625 2.375 -3.109375 3.640625q-2.03125 1.265625 -4.265625 1.265625q-1.640625 0 -2.953125 -0.6875q-1.296875 -0.703125 -2.140625 -1.75l0 9.421875l-3.28125 0zm2.984375 -16.984375q0 3.734375 1.5 5.515625q1.515625 1.78125 3.671875 1.78125q2.1875 0 3.734375 -1.84375q1.5625 -1.84375 1.5625 -5.734375q0 -3.703125 -1.515625 -5.53125q-1.515625 -1.84375 -3.640625 -1.84375q-2.09375 0 -3.703125 1.953125q-1.609375 1.953125 -1.609375 5.703125zm17.744507 9.5625l0 -19.359375l2.953125 0l0 2.9375q1.125 -2.0625 2.078125 -2.71875q0.96875 -0.65625 2.109375 -0.65625q1.671875 0 3.375 1.0625l-1.125 3.046875q-1.203125 -0.71875 -2.40625 -0.71875q-1.078125 0 -1.9375 0.65625q-0.859375 0.640625 -1.21875 1.78125q-0.546875 1.75 -0.546875 3.828125l0 10.140625l-3.28125 0zm25.102417 -2.390625q-1.828125 1.546875 -3.515625 2.1875q-1.6875 0.640625 -3.609375 0.640625q-3.1875 0 -4.90625 -1.546875q-1.71875 -1.5625 -1.71875 -4.0q0 -1.421875 0.640625 -2.59375q0.65625 -1.171875 1.703125 -1.875q1.046875 -0.71875 2.359375 -1.078125q0.96875 -0.265625 2.921875 -0.5q3.96875 -0.46875 5.84375 -1.125q0.03125 -0.671875 0.03125 -0.859375q0 -2.0 -0.9375 -2.828125q-1.25 -1.109375 -3.734375 -1.109375q-2.3125 0 -3.421875 0.8125q-1.09375 0.8125 -1.625 2.875l-3.21875 -0.4375q0.4375 -2.0625 1.4375 -3.328125q1.015625 -1.265625 2.90625 -1.953125q1.890625 -0.6875 4.390625 -0.6875q2.484375 0 4.03125 0.59375q1.546875 0.578125 2.28125 1.46875q0.734375 0.875 1.015625 2.21875q0.171875 0.84375 0.171875 3.03125l0 4.375q0 4.578125 0.203125 5.796875q0.21875 1.203125 0.828125 2.3125l-3.421875 0q-0.515625 -1.015625 -0.65625 -2.390625zm-0.28125 -7.328125q-1.78125 0.734375 -5.359375 1.25q-2.015625 0.28125 -2.859375 0.65625q-0.828125 0.359375 -1.296875 1.0625q-0.453125 0.703125 -0.453125 1.5625q0 1.3125 0.984375 2.1875q1.0 0.875 2.921875 0.875q1.890625 0 3.359375 -0.828125q1.484375 -0.84375 2.1875 -2.28125q0.515625 -1.109375 0.515625 -3.28125l0 -1.203125zm-6.375 -12.046875l2.421875 -5.09375l4.296875 0l-4.0 5.09375l-2.71875 0zm21.947632 18.828125l0.46875 2.90625q-1.375 0.28125 -2.46875 0.28125q-1.796875 0 -2.78125 -0.5625q-0.984375 -0.5625 -1.390625 -1.484375q-0.390625 -0.921875 -0.390625 -3.875l0 -11.140625l-2.40625 0l0 -2.546875l2.40625 0l0 -4.796875l3.265625 -1.96875l0 6.765625l3.296875 0l0 2.546875l-3.296875 0l0 11.328125q0 1.40625 0.171875 1.8125q0.171875 0.390625 0.5625 0.625q0.390625 0.234375 1.125 0.234375q0.546875 0 1.4375 -0.125zm3.2303467 -20.015625l0 -3.765625l3.28125 0l0 3.765625l-3.28125 0zm0 22.953125l0 -19.359375l3.28125 0l0 19.359375l-3.28125 0zm20.902466 -7.09375l3.21875 0.421875q-0.515625 3.34375 -2.703125 5.234375q-2.171875 1.875 -5.34375 1.875q-3.984375 0 -6.40625 -2.59375q-2.40625 -2.59375 -2.40625 -7.453125q0 -3.125 1.03125 -5.46875q1.046875 -2.359375 3.171875 -3.53125q2.125 -1.1875 4.625 -1.1875q3.15625 0 5.15625 1.59375q2.0 1.59375 2.578125 4.53125l-3.203125 0.5q-0.453125 -1.953125 -1.609375 -2.9375q-1.15625 -0.984375 -2.796875 -0.984375q-2.484375 0 -4.03125 1.78125q-1.546875 1.765625 -1.546875 5.609375q0 3.90625 1.484375 5.671875q1.5 1.765625 3.90625 1.765625q1.9375 0 3.234375 -1.171875q1.296875 -1.1875 1.640625 -3.65625zm18.664062 4.703125q-1.828125 1.546875 -3.515625 2.1875q-1.6875 0.640625 -3.609375 0.640625q-3.1875 0 -4.90625 -1.546875q-1.71875 -1.5625 -1.71875 -4.0q0 -1.421875 0.640625 -2.59375q0.65625 -1.171875 1.703125 -1.875q1.046875 -0.71875 2.359375 -1.078125q0.96875 -0.265625 2.921875 -0.5q3.96875 -0.46875 5.84375 -1.125q0.03125 -0.671875 0.03125 -0.859375q0 -2.0 -0.9375 -2.828125q-1.25 -1.109375 -3.734375 -1.109375q-2.3125 0 -3.421875 0.8125q-1.09375 0.8125 -1.625 2.875l-3.21875 -0.4375q0.4375 -2.0625 1.4375 -3.328125q1.015625 -1.265625 2.90625 -1.953125q1.890625 -0.6875 4.390625 -0.6875q2.484375 0 4.03125 0.59375q1.546875 0.578125 2.28125 1.46875q0.734375 0.875 1.015625 2.21875q0.171875 0.84375 0.171875 3.03125l0 4.375q0 4.578125 0.203125 5.796875q0.21875 1.203125 0.828125 2.3125l-3.421875 0q-0.515625 -1.015625 -0.65625 -2.390625zm-0.28125 -7.328125q-1.78125 0.734375 -5.359375 1.25q-2.015625 0.28125 -2.859375 0.65625q-0.828125 0.359375 -1.296875 1.0625q-0.453125 0.703125 -0.453125 1.5625q0 1.3125 0.984375 2.1875q1.0 0.875 2.921875 0.875q1.890625 0 3.359375 -0.828125q1.484375 -0.84375 2.1875 -2.28125q0.515625 -1.109375 0.515625 -3.28125l0 -1.203125z" fill-rule="nonzero"/></g></svg>