<svg version="1.1" viewBox="0.0 0.0 960.0 540.0" fill="none" stroke="none" stroke-linecap="square" stroke-miterlimit="10" xmlns:xlink="http://www.w3.org/1999/xlink" xmlns="http://www.w3.org/2000/svg"><clipPath id="g118c7617741_0_0.0"><path d="m0 0l960.0 0l0 540.0l-960.0 0l0 -540.0z" clip-rule="nonzero"/></clipPath><g clip-path="url(#g118c7617741_0_0.0)"><path fill="#212121" d="m0 0l960.0 0l0 540.0l-960.0 0z" fill-rule="evenodd"/><path fill="#000000" fill-opacity="0.0" d="m32.72441 46.721786l894.55115 0l0 60.125984l-894.55115 0z" fill-rule="evenodd"/><path fill="#ffffff" d="m42.75566 82.77466l2.921875 -0.453125q0.25 1.75 1.375 2.6875q1.125 0.9375 3.140625 0.9375q2.03125 0 3.015625 -0.828125q0.984375 -0.828125 0.984375 -1.953125q0 -1.0 -0.875 -1.5625q-0.609375 -0.40625 -3.015625 -1.0q-3.25 -0.828125 -4.5 -1.421875q-1.25 -0.609375 -1.90625 -1.65625q-0.640625 -1.0625 -0.640625 -2.34375q0 -1.15625 0.53125 -2.140625q0.53125 -1.0 1.453125 -1.65625q0.6875 -0.515625 1.875 -0.859375q1.1875 -0.359375 2.546875 -0.359375q2.046875 0 3.59375 0.59375q1.5625 0.578125 2.296875 1.59375q0.734375 1.015625 1.015625 2.703125l-2.890625 0.390625q-0.1875 -1.34375 -1.140625 -2.09375q-0.9375 -0.765625 -2.65625 -0.765625q-2.03125 0 -2.90625 0.671875q-0.875 0.671875 -0.875 1.578125q0 0.578125 0.359375 1.03125q0.359375 0.484375 1.140625 0.796875q0.4375 0.15625 2.609375 0.75q3.125 0.828125 4.359375 1.375q1.25 0.53125 1.953125 1.546875q0.703125 1.015625 0.703125 2.515625q0 1.484375 -0.859375 2.796875q-0.859375 1.296875 -2.484375 2.015625q-1.625 0.703125 -3.671875 0.703125q-3.40625 0 -5.1875 -1.40625q-1.765625 -1.40625 -2.265625 -4.1875zm18.0 -15.453125l0 -3.390625l2.953125 0l0 3.390625l-2.953125 0zm0 20.65625l0 -17.421875l2.953125 0l0 17.421875l-2.953125 0zm7.44783 0l0 -17.421875l2.65625 0l0 2.484375q1.921875 -2.875 5.546875 -2.875q1.5625 0 2.875 0.5625q1.328125 0.5625 1.984375 1.484375q0.65625 0.921875 0.921875 2.1875q0.171875 0.8125 0.171875 2.859375l0 10.71875l-2.953125 0l0 -10.59375q0 -1.8125 -0.34375 -2.703125q-0.34375 -0.890625 -1.234375 -1.421875q-0.875 -0.53125 -2.046875 -0.53125q-1.890625 0 -3.265625 1.203125q-1.359375 1.1875 -1.359375 4.53125l0 9.515625l-2.953125 0zm25.120743 -2.640625l0.4375 2.609375q-1.25 0.265625 -2.234375 0.265625q-1.609375 0 -2.5 -0.5q-0.875 -0.515625 -1.25 -1.34375q-0.359375 -0.828125 -0.359375 -3.484375l0 -10.03125l-2.15625 0l0 -2.296875l2.15625 0l0 -4.3125l2.9375 -1.765625l0 6.078125l2.96875 0l0 2.296875l-2.96875 0l0 10.1875q0 1.265625 0.15625 1.625q0.15625 0.359375 0.5 0.578125q0.359375 0.203125 1.015625 0.203125q0.5 0 1.296875 -0.109375zm14.255295 0.484375q-1.640625 1.40625 -3.15625 1.984375q-1.515625 0.5625 -3.25 0.5625q-2.875 0 -4.421875 -1.390625q-1.53125 -1.40625 -1.53125 -3.59375q0 -1.28125 0.578125 -2.328125q0.578125 -1.0625 1.515625 -1.703125q0.953125 -0.640625 2.140625 -0.96875q0.859375 -0.234375 2.625 -0.4375q3.5625 -0.4375 5.25 -1.03125q0.03125 -0.59375 0.03125 -0.765625q0 -1.796875 -0.84375 -2.546875q-1.125 -1.0 -3.359375 -1.0q-2.09375 0 -3.09375 0.734375q-0.984375 0.734375 -1.453125 2.578125l-2.890625 -0.390625q0.390625 -1.84375 1.296875 -2.984375q0.90625 -1.140625 2.609375 -1.75q1.703125 -0.625 3.953125 -0.625q2.234375 0 3.625 0.53125q1.390625 0.515625 2.046875 1.3125q0.65625 0.796875 0.921875 2.015625q0.15625 0.75 0.15625 2.71875l0 3.9375q0 4.109375 0.1875 5.203125q0.1875 1.09375 0.734375 2.09375l-3.078125 0q-0.453125 -0.921875 -0.59375 -2.15625zm-0.25 -6.59375q-1.59375 0.65625 -4.8125 1.125q-1.828125 0.265625 -2.578125 0.59375q-0.75 0.328125 -1.171875 0.953125q-0.40625 0.625 -0.40625 1.40625q0 1.171875 0.890625 1.96875q0.90625 0.78125 2.625 0.78125q1.703125 0 3.03125 -0.734375q1.328125 -0.75 1.953125 -2.046875q0.46875 -1.0 0.46875 -2.953125l0 -1.09375zm5.605118 8.75l6.359375 -9.046875l-5.890625 -8.375l3.6875 0l2.6875 4.09375q0.75 1.15625 1.203125 1.9375q0.71875 -1.078125 1.328125 -1.90625l2.9375 -4.125l3.53125 0l-6.015625 8.203125l6.46875 9.21875l-3.625 0l-3.578125 -5.40625l-0.9375 -1.46875l-4.578125 6.875l-3.578125 0zm30.6875 -5.609375l3.046875 0.375q-0.71875 2.671875 -2.671875 4.15625q-1.953125 1.46875 -4.984375 1.46875q-3.828125 0 -6.0625 -2.34375q-2.234375 -2.359375 -2.234375 -6.609375q0 -4.390625 2.25 -6.8125q2.265625 -2.4375 5.875 -2.4375q3.5 0 5.703125 2.375q2.21875 2.375 2.21875 6.6875q0 0.265625 -0.015625 0.796875l-12.984375 0q0.15625 2.875 1.609375 4.40625q1.46875 1.515625 3.65625 1.515625q1.625 0 2.765625 -0.84375q1.15625 -0.859375 1.828125 -2.734375zm-9.703125 -4.78125l9.734375 0q-0.203125 -2.1875 -1.109375 -3.296875q-1.421875 -1.703125 -3.65625 -1.703125q-2.046875 0 -3.4375 1.375q-1.375 1.359375 -1.53125 3.625z" fill-rule="nonzero"/><path fill="#ffffff" d="m158.97385 89.39966l2.828125 0.421875q0.171875 1.296875 0.984375 1.890625q1.078125 0.8125 2.9375 0.8125q2.015625 0 3.109375 -0.8125q1.09375 -0.796875 1.484375 -2.25q0.234375 -0.890625 0.21875 -3.71875q-1.90625 2.234375 -4.75 2.234375q-3.515625 0 -5.453125 -2.546875q-1.9375 -2.546875 -1.9375 -6.109375q0 -2.453125 0.890625 -4.515625q0.890625 -2.078125 2.5625 -3.203125q1.6875 -1.125 3.953125 -1.125q3.03125 0 5.0 2.453125l0 -2.0625l2.671875 0l0 14.78125q0 4.0 -0.8125 5.671875q-0.8125 1.671875 -2.578125 2.625q-1.765625 0.96875 -4.34375 0.96875q-3.0625 0 -4.953125 -1.375q-1.875 -1.375 -1.8125 -4.140625zm2.40625 -10.28125q0 3.359375 1.328125 4.90625q1.34375 1.546875 3.359375 1.546875q2.0 0 3.34375 -1.53125q1.359375 -1.546875 1.359375 -4.828125q0 -3.140625 -1.390625 -4.734375q-1.390625 -1.59375 -3.359375 -1.59375q-1.9375 0 -3.296875 1.578125q-1.34375 1.5625 -1.34375 4.65625zm28.196777 3.34375l3.0 0.375q-0.71875 2.625 -2.640625 4.078125q-1.90625 1.453125 -4.890625 1.453125q-3.75 0 -5.953125 -2.3125q-2.203125 -2.3125 -2.203125 -6.484375q0 -4.328125 2.21875 -6.703125q2.234375 -2.390625 5.78125 -2.390625q3.4375 0 5.609375 2.34375q2.171875 2.328125 2.171875 6.5625q0 0.265625 -0.015625 0.78125l-12.765625 0q0.15625 2.8125 1.59375 4.3125q1.4375 1.5 3.578125 1.5q1.59375 0 2.71875 -0.828125q1.140625 -0.84375 1.796875 -2.6875zm-9.53125 -4.6875l9.5625 0q-0.1875 -2.15625 -1.09375 -3.234375q-1.390625 -1.671875 -3.59375 -1.671875q-2.0 0 -3.359375 1.34375q-1.359375 1.328125 -1.515625 3.5625zm22.509277 7.609375l0.40625 2.5625q-1.21875 0.25 -2.1875 0.25q-1.578125 0 -2.453125 -0.5q-0.859375 -0.5 -1.21875 -1.3125q-0.359375 -0.8125 -0.359375 -3.421875l0 -9.84375l-2.125 0l0 -2.25l2.125 0l0 -4.234375l2.890625 -1.75l0 5.984375l2.921875 0l0 2.25l-2.921875 0l0 10.015625q0 1.234375 0.140625 1.59375q0.15625 0.34375 0.5 0.5625q0.359375 0.203125 1.0 0.203125q0.484375 0 1.28125 -0.109375zm3.262207 2.59375l0 -23.625l17.078125 0l0 2.796875l-13.953125 0l0 7.234375l13.0625 0l0 2.765625l-13.0625 0l0 8.046875l14.5 0l0 2.78125l-17.625 0zm21.510742 0l0 -23.625l2.90625 0l0 23.625l-2.90625 0zm19.112793 -5.515625l3.0 0.375q-0.71875 2.625 -2.640625 4.078125q-1.90625 1.453125 -4.890625 1.453125q-3.75 0 -5.953125 -2.3125q-2.203125 -2.3125 -2.203125 -6.484375q0 -4.328125 2.21875 -6.703125q2.234375 -2.390625 5.78125 -2.390625q3.4375 0 5.609375 2.34375q2.171875 2.328125 2.171875 6.5625q0 0.265625 -0.015625 0.78125l-12.765625 0q0.15625 2.8125 1.59375 4.3125q1.4375 1.5 3.578125 1.5q1.59375 0 2.71875 -0.828125q1.140625 -0.84375 1.796875 -2.6875zm-9.53125 -4.6875l9.5625 0q-0.1875 -2.15625 -1.09375 -3.234375q-1.390625 -1.671875 -3.59375 -1.671875q-2.0 0 -3.359375 1.34375q-1.359375 1.328125 -1.515625 3.5625zm16.165527 10.203125l0 -17.109375l2.59375 0l0 2.390625q0.8125 -1.25 2.140625 -2.015625q1.34375 -0.765625 3.046875 -0.765625q1.90625 0 3.125 0.796875q1.21875 0.78125 1.71875 2.203125q2.03125 -3.0 5.28125 -3.0q2.546875 0 3.90625 1.421875q1.375 1.40625 1.375 4.328125l0 11.75l-2.875 0l0 -10.78125q0 -1.734375 -0.28125 -2.5q-0.28125 -0.765625 -1.03125 -1.234375q-0.734375 -0.46875 -1.734375 -0.46875q-1.8125 0 -3.0 1.203125q-1.1875 1.203125 -1.1875 3.84375l0 9.9375l-2.90625 0l0 -11.125q0 -1.921875 -0.71875 -2.890625q-0.703125 -0.96875 -2.3125 -0.96875q-1.21875 0 -2.265625 0.640625q-1.03125 0.640625 -1.5 1.890625q-0.46875 1.234375 -0.46875 3.578125l0 8.875l-2.90625 0zm39.208008 -5.515625l3.0 0.375q-0.71875 2.625 -2.640625 4.078125q-1.90625 1.453125 -4.890625 1.453125q-3.75 0 -5.953125 -2.3125q-2.203125 -2.3125 -2.203125 -6.484375q0 -4.328125 2.21875 -6.703125q2.234375 -2.390625 5.78125 -2.390625q3.4375 0 5.609375 2.34375q2.171875 2.328125 2.171875 6.5625q0 0.265625 -0.015625 0.78125l-12.765625 0q0.15625 2.8125 1.59375 4.3125q1.4375 1.5 3.578125 1.5q1.59375 0 2.71875 -0.828125q1.140625 -0.84375 1.796875 -2.6875zm-9.53125 -4.6875l9.5625 0q-0.1875 -2.15625 -1.09375 -3.234375q-1.390625 -1.671875 -3.59375 -1.671875q-2.0 0 -3.359375 1.34375q-1.359375 1.328125 -1.515625 3.5625zm16.165527 10.203125l0 -17.109375l2.609375 0l0 2.4375q1.890625 -2.828125 5.453125 -2.828125q1.546875 0 2.84375 0.5625q1.296875 0.546875 1.9375 1.453125q0.640625 0.90625 0.90625 2.140625q0.15625 0.8125 0.15625 2.828125l0 10.515625l-2.890625 0l0 -10.40625q0 -1.78125 -0.34375 -2.65625q-0.34375 -0.875 -1.203125 -1.390625q-0.859375 -0.53125 -2.015625 -0.53125q-1.859375 0 -3.203125 1.171875q-1.34375 1.171875 -1.34375 4.46875l0 9.34375l-2.90625 0zm24.696777 -2.59375l0.40625 2.5625q-1.21875 0.25 -2.1875 0.25q-1.578125 0 -2.453125 -0.5q-0.859375 -0.5 -1.21875 -1.3125q-0.359375 -0.8125 -0.359375 -3.421875l0 -9.84375l-2.125 0l0 -2.25l2.125 0l0 -4.234375l2.890625 -1.75l0 5.984375l2.921875 0l0 2.25l-2.921875 0l0 10.015625q0 1.234375 0.140625 1.59375q0.15625 0.34375 0.5 0.5625q0.359375 0.203125 1.0 0.203125q0.484375 0 1.28125 -0.109375zm3.074707 2.59375l0 -23.625l8.859375 0q2.703125 0 4.328125 0.71875q1.640625 0.71875 2.5625 2.21875q0.9375 1.484375 0.9375 3.109375q0 1.515625 -0.828125 2.859375q-0.8125 1.328125 -2.46875 2.15625q2.140625 0.625 3.28125 2.140625q1.15625 1.515625 1.15625 3.578125q0 1.65625 -0.703125 3.078125q-0.6875 1.421875 -1.71875 2.203125q-1.03125 0.765625 -2.59375 1.171875q-1.546875 0.390625 -3.8125 0.390625l-9.0 0zm3.125 -13.703125l5.109375 0q2.078125 0 2.96875 -0.265625q1.203125 -0.359375 1.796875 -1.171875q0.609375 -0.828125 0.609375 -2.0625q0 -1.1875 -0.5625 -2.078125q-0.5625 -0.890625 -1.609375 -1.21875q-1.046875 -0.328125 -3.59375 -0.328125l-4.71875 0l0 7.125zm0 10.921875l5.875 0q1.515625 0 2.125 -0.125q1.078125 -0.1875 1.796875 -0.640625q0.734375 -0.453125 1.203125 -1.3125q0.46875 -0.859375 0.46875 -1.984375q0 -1.328125 -0.6875 -2.296875q-0.671875 -0.984375 -1.875 -1.375q-1.1875 -0.390625 -3.453125 -0.390625l-5.453125 0l0 8.125zm18.510742 9.375l-0.328125 -2.71875q0.953125 0.25 1.671875 0.25q0.953125 0 1.53125 -0.328125q0.59375 -0.3125 0.953125 -0.890625q0.28125 -0.4375 0.890625 -2.171875q0.078125 -0.234375 0.265625 -0.703125l-6.5 -17.140625l3.125 0l3.5625 9.90625q0.6875 1.890625 1.234375 3.96875q0.5 -2.0 1.203125 -3.90625l3.65625 -9.96875l2.890625 0l-6.5 17.40625q-1.046875 2.8125 -1.625 3.875q-0.78125 1.4375 -1.78125 2.09375q-1.0 0.671875 -2.375 0.671875q-0.84375 0 -1.875 -0.34375zm17.53125 -6.59375l0 -23.625l3.125 0l0 23.625l-3.125 0zm19.371582 0l0 -2.15625q-1.625 2.546875 -4.796875 2.546875q-2.03125 0 -3.75 -1.125q-1.71875 -1.140625 -2.671875 -3.15625q-0.9375 -2.015625 -0.9375 -4.65625q0 -2.5625 0.859375 -4.640625q0.859375 -2.09375 2.5625 -3.203125q1.703125 -1.109375 3.8125 -1.109375q1.546875 0 2.75 0.65625q1.21875 0.65625 1.96875 1.703125l0 -8.484375l2.890625 0l0 23.625l-2.6875 0zm-9.171875 -8.546875q0 3.296875 1.375 4.921875q1.390625 1.625 3.28125 1.625q1.90625 0 3.234375 -1.546875q1.328125 -1.5625 1.328125 -4.75q0 -3.515625 -1.359375 -5.15625q-1.34375 -1.640625 -3.328125 -1.640625q-1.9375 0 -3.234375 1.578125q-1.296875 1.578125 -1.296875 4.96875zm17.228027 -5.265625l0 -3.296875l3.296875 0l0 3.296875l-3.296875 0zm0 13.8125l0 -3.296875l3.296875 0l0 3.296875l-3.296875 0z" fill-rule="nonzero"/><path fill="#000000" fill-opacity="0.0" d="m32.72441 120.99475l894.55115 0l0 358.67715l-894.55115 0z" fill-rule="evenodd"/><path fill="#1e1e1e" d="m41.72441 179.11476l163.15155 0l0 28.799988l-163.15155 0l0 -28.799988z" fill-rule="nonzero"/><path fill="#1e1e1e" d="m232.22752 179.11476l331.2539 0l0 28.799988l-331.2539 0l0 -28.799988z" fill-rule="nonzero"/><path fill="#1e1e1e" d="m598.1455 179.11476l14.402344 0l0 28.799988l-14.402344 0l0 -28.799988z" fill-rule="nonzero"/><path fill="#000000" fill-opacity="0.0" d="m41.72441 183.29298l40.787888 0l0 25.665283l-40.787888 0l0 -25.665283z" fill-rule="nonzero"/><path fill="#569cd6" d="m48.990036 188.26413l0 12.96875l3.65625 0q0.34375 0 0.484375 0.125q0.140625 0.125 0.140625 0.328125q0 0.203125 -0.140625 0.34375q-0.140625 0.125 -0.484375 0.125l-8.234375 0q-0.328125 0 -0.484375 -0.125q-0.140625 -0.140625 -0.140625 -0.34375q0 -0.203125 0.140625 -0.328125q0.15625 -0.125 0.484375 -0.125l3.65625 0l0 -12.015625l-2.6875 0q-0.328125 0 -0.484375 -0.125q-0.140625 -0.140625 -0.140625 -0.359375q0 -0.203125 0.140625 -0.328125q0.140625 -0.140625 0.484375 -0.140625l3.609375 0zm18.158463 9.328125l-9.46875 0q0.234375 1.796875 1.5 2.90625q1.28125 1.09375 3.140625 1.09375q1.046875 0 2.1875 -0.34375q1.140625 -0.34375 1.859375 -0.90625q0.203125 -0.171875 0.359375 -0.171875q0.171875 0 0.296875 0.140625q0.140625 0.140625 0.140625 0.328125q0 0.1875 -0.171875 0.359375q-0.53125 0.5625 -1.890625 1.046875q-1.34375 0.46875 -2.78125 0.46875q-2.390625 0 -3.984375 -1.5625q-1.59375 -1.5625 -1.59375 -3.78125q0 -2.03125 1.484375 -3.46875q1.5 -1.453125 3.71875 -1.453125q2.28125 0 3.75 1.484375q1.46875 1.484375 1.453125 3.859375zm-0.9375 -0.953125q-0.28125 -1.53125 -1.46875 -2.484375q-1.171875 -0.96875 -2.796875 -0.96875q-1.625 0 -2.796875 0.953125q-1.171875 0.953125 -1.453125 2.5l8.515625 0zm7.5959625 -4.0625l5.046875 0q0.328125 0 0.46875 0.140625q0.140625 0.125 0.140625 0.328125q0 0.203125 -0.140625 0.34375q-0.140625 0.125 -0.46875 0.125l-5.046875 0l0 6.1875q0 0.8125 0.640625 1.359375q0.65625 0.53125 1.90625 0.53125q0.9375 0 2.03125 -0.28125q1.09375 -0.28125 1.703125 -0.640625q0.21875 -0.140625 0.359375 -0.140625q0.1875 0 0.3125 0.140625q0.140625 0.140625 0.140625 0.328125q0 0.15625 -0.140625 0.296875q-0.359375 0.375 -1.734375 0.796875q-1.359375 0.421875 -2.609375 0.421875q-1.625 0 -2.59375 -0.75q-0.953125 -0.765625 -0.953125 -2.0625l0 -6.1875l-1.71875 0q-0.328125 0 -0.484375 -0.125q-0.140625 -0.140625 -0.140625 -0.34375q0 -0.203125 0.140625 -0.328125q0.15625 -0.140625 0.484375 -0.140625l1.71875 0l0 -2.75q0 -0.328125 0.125 -0.46875q0.140625 -0.140625 0.328125 -0.140625q0.21875 0 0.34375 0.140625q0.140625 0.140625 0.140625 0.46875l0 2.75z" fill-rule="nonzero"/><path fill="#010000" fill-opacity="0.0" d="m82.5123 183.29298l13.595963 0l0 25.665283l-13.595963 0l0 -25.665283z" fill-rule="nonzero"/><path fill="#000000" fill-opacity="0.0" d="m96.10826 183.29298l108.7677 0l0 25.665283l-108.7677 0l0 -25.665283z" fill-rule="nonzero"/><path fill="#c8c8c8" d="m99.873886 195.90475l0 5.328125l7.15625 0l0 -2.75q0 -0.328125 0.125 -0.46875q0.125 -0.15625 0.34375 -0.15625q0.203125 0 0.328125 0.15625q0.125 0.140625 0.125 0.46875l0 3.671875l-10.25 0q-0.328125 0 -0.484375 -0.125q-0.140625 -0.140625 -0.140625 -0.34375q0 -0.203125 0.140625 -0.328125q0.15625 -0.125 0.484375 -0.125l1.25 0l0 -11.09375l-1.25 0q-0.328125 0 -0.484375 -0.125q-0.140625 -0.125 -0.140625 -0.34375q0 -0.203125 0.140625 -0.328125q0.15625 -0.125 0.484375 -0.125l9.765625 0l0 3.1875q0 0.328125 -0.125 0.484375q-0.125 0.140625 -0.34375 0.140625q-0.203125 0 -0.328125 -0.140625q-0.125 -0.15625 -0.125 -0.484375l0 -2.265625l-6.671875 0l0 4.84375l3.34375 0l0 -1.0625q0 -0.328125 0.125 -0.46875q0.140625 -0.140625 0.34375 -0.140625q0.203125 0 0.328125 0.140625q0.140625 0.140625 0.140625 0.46875l0 3.03125q0 0.328125 -0.140625 0.484375q-0.125 0.140625 -0.328125 0.140625q-0.203125 0 -0.34375 -0.140625q-0.125 -0.15625 -0.125 -0.484375l0 -1.046875l-3.34375 0zm17.095963 -7.640625l0 12.96875l3.65625 0q0.34375 0 0.484375 0.125q0.140625 0.125 0.140625 0.328125q0 0.203125 -0.140625 0.34375q-0.140625 0.125 -0.484375 0.125l-8.234375 0q-0.328125 0 -0.484375 -0.125q-0.140625 -0.140625 -0.140625 -0.34375q0 -0.203125 0.140625 -0.328125q0.15625 -0.125 0.484375 -0.125l3.65625 0l0 -12.015625l-2.6875 0q-0.328125 0 -0.484375 -0.125q-0.140625 -0.140625 -0.140625 -0.359375q0 -0.203125 0.140625 -0.328125q0.140625 -0.140625 0.484375 -0.140625l3.609375 0zm18.158463 9.328125l-9.46875 0q0.234375 1.796875 1.5 2.90625q1.28125 1.09375 3.140625 1.09375q1.046875 0 2.1875 -0.34375q1.140625 -0.34375 1.859375 -0.90625q0.203125 -0.171875 0.359375 -0.171875q0.171875 0 0.296875 0.140625q0.140625 0.140625 0.140625 0.328125q0 0.1875 -0.171875 0.359375q-0.53125 0.5625 -1.890625 1.046875q-1.34375 0.46875 -2.78125 0.46875q-2.390625 0 -3.984375 -1.5625q-1.59375 -1.5625 -1.59375 -3.78125q0 -2.03125 1.484375 -3.46875q1.5 -1.453125 3.71875 -1.453125q2.28125 0 3.75 1.484375q1.46875 1.484375 1.453125 3.859375zm-0.9375 -0.953125q-0.28125 -1.53125 -1.46875 -2.484375q-1.171875 -0.96875 -2.796875 -0.96875q-1.625 0 -2.796875 0.953125q-1.171875 0.953125 -1.453125 2.5l8.515625 0zm5.2678375 -4.0625l0 0.9375q1.1875 -1.265625 2.375 -1.265625q0.734375 0 1.265625 0.375q0.546875 0.375 0.90625 1.15625q0.625 -0.78125 1.25 -1.15625q0.640625 -0.375 1.28125 -0.375q1.015625 0 1.609375 0.640625q0.78125 0.84375 0.78125 1.84375l0 6.5l0.796875 0q0.328125 0 0.46875 0.125q0.140625 0.125 0.140625 0.328125q0 0.203125 -0.140625 0.34375q-0.140625 0.125 -0.46875 0.125l-1.71875 0l0 -7.328125q0 -0.71875 -0.4375 -1.171875q-0.421875 -0.46875 -0.984375 -0.46875q-0.515625 0 -1.078125 0.390625q-0.5625 0.375 -1.28125 1.484375l0 6.171875l0.765625 0q0.34375 0 0.484375 0.125q0.140625 0.125 0.140625 0.328125q0 0.203125 -0.140625 0.34375q-0.140625 0.125 -0.484375 0.125l-1.703125 0l0 -7.265625q0 -0.75 -0.4375 -1.21875q-0.4375 -0.484375 -0.984375 -0.484375q-0.5 0 -0.984375 0.3125q-0.671875 0.453125 -1.421875 1.5625l0 6.171875l0.796875 0q0.328125 0 0.46875 0.125q0.140625 0.125 0.140625 0.328125q0 0.203125 -0.140625 0.34375q-0.140625 0.125 -0.46875 0.125l-2.5 0q-0.34375 0 -0.484375 -0.125q-0.140625 -0.140625 -0.140625 -0.34375q0 -0.203125 0.140625 -0.328125q0.140625 -0.125 0.484375 -0.125l0.78125 0l0 -7.71875l-0.78125 0q-0.34375 0 -0.484375 -0.125q-0.140625 -0.140625 -0.140625 -0.34375q0 -0.203125 0.140625 -0.328125q0.140625 -0.140625 0.484375 -0.140625l1.703125 0zm22.861588 5.015625l-9.46875 0q0.234375 1.796875 1.5 2.90625q1.28125 1.09375 3.140625 1.09375q1.046875 0 2.1875 -0.34375q1.140625 -0.34375 1.859375 -0.90625q0.203125 -0.171875 0.359375 -0.171875q0.171875 0 0.296875 0.140625q0.140625 0.140625 0.140625 0.328125q0 0.1875 -0.171875 0.359375q-0.53125 0.5625 -1.890625 1.046875q-1.34375 0.46875 -2.78125 0.46875q-2.390625 0 -3.984375 -1.5625q-1.59375 -1.5625 -1.59375 -3.78125q0 -2.03125 1.484375 -3.46875q1.5 -1.453125 3.71875 -1.453125q2.28125 0 3.75 1.484375q1.46875 1.484375 1.453125 3.859375zm-0.9375 -0.953125q-0.28125 -1.53125 -1.46875 -2.484375q-1.171875 -0.96875 -2.796875 -0.96875q-1.625 0 -2.796875 0.953125q-1.171875 0.953125 -1.453125 2.5l8.515625 0zm6.5022125 -4.0625l0 1.40625q0.96875 -0.984375 1.75 -1.359375q0.796875 -0.375 1.78125 -0.375q1.0625 0 1.9375 0.453125q0.609375 0.328125 1.109375 1.09375q0.515625 0.765625 0.515625 1.578125l0 5.859375l0.78125 0q0.328125 0 0.46875 0.125q0.15625 0.125 0.15625 0.328125q0 0.203125 -0.15625 0.34375q-0.140625 0.125 -0.46875 0.125l-2.484375 0q-0.34375 0 -0.5 -0.125q-0.140625 -0.140625 -0.140625 -0.34375q0 -0.203125 0.140625 -0.328125q0.15625 -0.125 0.5 -0.125l0.765625 0l0 -5.703125q0 -0.984375 -0.71875 -1.65625q-0.71875 -0.6875 -1.921875 -0.6875q-0.921875 0 -1.59375 0.375q-0.671875 0.359375 -1.921875 1.828125l0 5.84375l1.046875 0q0.328125 0 0.46875 0.125q0.15625 0.125 0.15625 0.328125q0 0.203125 -0.15625 0.34375q-0.140625 0.125 -0.46875 0.125l-3.03125 0q-0.328125 0 -0.484375 -0.125q-0.140625 -0.140625 -0.140625 -0.34375q0 -0.203125 0.140625 -0.328125q0.15625 -0.125 0.484375 -0.125l1.046875 0l0 -7.71875l-0.78125 0q-0.328125 0 -0.484375 -0.125q-0.140625 -0.140625 -0.140625 -0.34375q0 -0.203125 0.140625 -0.328125q0.15625 -0.140625 0.484375 -0.140625l1.71875 0zm14.689713 0l5.046875 0q0.328125 0 0.46875 0.140625q0.140625 0.125 0.140625 0.328125q0 0.203125 -0.140625 0.34375q-0.140625 0.125 -0.46875 0.125l-5.046875 0l0 6.1875q0 0.8125 0.640625 1.359375q0.65625 0.53125 1.90625 0.53125q0.9375 0 2.03125 -0.28125q1.09375 -0.28125 1.703125 -0.640625q0.21875 -0.140625 0.359375 -0.140625q0.1875 0 0.3125 0.140625q0.140625 0.140625 0.140625 0.328125q0 0.15625 -0.140625 0.296875q-0.359375 0.375 -1.734375 0.796875q-1.359375 0.421875 -2.609375 0.421875q-1.625 0 -2.59375 -0.75q-0.953125 -0.765625 -0.953125 -2.0625l0 -6.1875l-1.71875 0q-0.328125 0 -0.484375 -0.125q-0.140625 -0.140625 -0.140625 -0.34375q0 -0.203125 0.140625 -0.328125q0.15625 -0.140625 0.484375 -0.140625l1.71875 0l0 -2.75q0 -0.328125 0.125 -0.46875q0.140625 -0.140625 0.328125 -0.140625q0.21875 0 0.34375 0.140625q0.140625 0.140625 0.140625 0.46875l0 2.75zm20.689713 4.8125q0 2.125 -1.515625 3.625q-1.515625 1.5 -3.671875 1.5q-2.15625 0 -3.671875 -1.5q-1.515625 -1.515625 -1.515625 -3.625q0 -2.125 1.515625 -3.625q1.515625 -1.515625 3.671875 -1.515625q2.15625 0 3.671875 1.5q1.515625 1.5 1.515625 3.640625zm-0.9375 0q0 -1.75 -1.25 -2.96875q-1.234375 -1.234375 -3.0 -1.234375q-1.78125 0 -3.03125 1.234375q-1.234375 1.234375 -1.234375 2.96875q0 1.71875 1.234375 2.96875q1.25 1.234375 3.03125 1.234375q1.765625 0 3.0 -1.234375q1.25 -1.234375 1.25 -2.96875z" fill-rule="nonzero"/><path fill="#adadad" d="m224.23143 192.04538l-11.34375 0l0 -1.96875l11.34375 0l0 1.96875zm0 5.21875l-11.34375 0l0 -1.96875l11.34375 0l0 1.96875z" fill-rule="nonzero"/><path fill="#000000" fill-opacity="0.0" d="m232.22752 182.17429l115.218735 0l0 27.1875l-115.218735 0l0 -27.1875z" fill-rule="nonzero"/><path fill="#c8c8c8" d="m244.25877 187.45163l0 13.71875l1.3125 0q0.359375 0 0.5 0.140625q0.15625 0.125 0.15625 0.34375q0 0.21875 -0.15625 0.359375q-0.140625 0.140625 -0.5 0.140625l-2.3125 0l0 -1.953125q-1.71875 2.34375 -4.34375 2.34375q-1.34375 0 -2.578125 -0.703125q-1.21875 -0.71875 -1.921875 -2.03125q-0.703125 -1.3125 -0.703125 -2.703125q0 -1.40625 0.703125 -2.71875q0.703125 -1.3125 1.921875 -2.015625q1.234375 -0.71875 2.578125 -0.71875q2.578125 0 4.34375 2.34375l0 -5.5625l-1.3125 0q-0.359375 0 -0.515625 -0.140625q-0.15625 -0.140625 -0.15625 -0.359375q0 -0.203125 0.15625 -0.34375q0.15625 -0.140625 0.515625 -0.140625l2.3125 0zm-1.0 9.65625q0 -1.875 -1.265625 -3.15625q-1.265625 -1.296875 -3.015625 -1.296875q-1.75 0 -3.015625 1.296875q-1.265625 1.28125 -1.265625 3.15625q0 1.859375 1.265625 3.15625q1.265625 1.296875 3.015625 1.296875q1.75 0 3.015625 -1.296875q1.265625 -1.296875 1.265625 -3.15625zm16.074203 0q0 2.25 -1.609375 3.84375q-1.609375 1.59375 -3.8906097 1.59375q-2.296875 0 -3.90625 -1.59375q-1.59375 -1.609375 -1.59375 -3.84375q0 -2.25 1.59375 -3.84375q1.609375 -1.609375 3.90625 -1.609375q2.2812347 0 3.8906097 1.59375q1.609375 1.59375 1.609375 3.859375zm-1.0 0q0 -1.859375 -1.3125 -3.15625q-1.3124847 -1.296875 -3.1874847 -1.296875q-1.875 0 -3.203125 1.3125q-1.3125 1.296875 -1.3125 3.140625q0 1.828125 1.3125 3.140625q1.328125 1.3125 3.203125 1.3125q1.875 0 3.1874847 -1.3125q1.3125 -1.3125 1.3125 -3.140625zm14.011719 -4.109375l0 -0.328125q0 -0.359375 0.140625 -0.515625q0.140625 -0.15625 0.34375 -0.15625q0.234375 0 0.375 0.15625q0.140625 0.15625 0.140625 0.515625l0 2.234375q-0.015625 0.359375 -0.15625 0.515625q-0.125 0.140625 -0.359375 0.140625q-0.1875 0 -0.328125 -0.125q-0.140625 -0.140625 -0.15625 -0.453125q-0.078125 -0.828125 -1.109375 -1.578125q-1.015625 -0.75 -2.75 -0.75q-2.1875 0 -3.328125 1.375q-1.140625 1.359375 -1.140625 3.125q0 1.921875 1.25 3.171875q1.265625 1.234375 3.25 1.234375q1.15625 0 2.34375 -0.421875q1.1875 -0.421875 2.15625 -1.359375q0.234375 -0.234375 0.421875 -0.234375q0.203125 0 0.328125 0.140625q0.140625 0.125 0.140625 0.328125q0 0.5 -1.171875 1.265625q-1.921875 1.265625 -4.265625 1.265625q-2.375 0 -3.90625 -1.515625q-1.53125 -1.53125 -1.53125 -3.859375q0 -2.375 1.5625 -3.9375q1.578125 -1.578125 3.953125 -1.578125q2.265625 0 3.796875 1.34375zm13.667969 9.15625l0 -1.4375q-2.015625 1.828125 -4.359375 1.828125q-1.453125 0 -2.203125 -0.796875q-0.96875 -1.03125 -0.96875 -2.390625l0 -6.359375l-1.328125 0q-0.34375 0 -0.5 -0.140625q-0.15625 -0.140625 -0.15625 -0.359375q0 -0.21875 0.15625 -0.359375q0.15625 -0.140625 0.5 -0.140625l2.3125 0l0 7.359375q0 0.953125 0.609375 1.578125q0.609375 0.625 1.53125 0.625q2.390625 0 4.40625 -2.203125l0 -6.359375l-1.828125 0q-0.34375 0 -0.5 -0.140625q-0.15625 -0.140625 -0.15625 -0.359375q0 -0.21875 0.15625 -0.359375q0.15625 -0.140625 0.5 -0.140625l2.8125 0l0 9.171875l0.828125 0q0.34375 0 0.5 0.140625q0.15625 0.125 0.15625 0.34375q0 0.21875 -0.15625 0.359375q-0.15625 0.140625 -0.5 0.140625l-1.8125 0zm6.5429688 -10.15625l0 1.0q1.25 -1.34375 2.515625 -1.34375q0.765625 0 1.34375 0.40625q0.578125 0.40625 0.953125 1.21875q0.65625 -0.8125 1.328125 -1.21875q0.6875 -0.40625 1.359375 -0.40625q1.0625 0 1.703125 0.6875q0.828125 0.890625 0.828125 1.953125l0 6.875l0.828125 0q0.359375 0 0.5 0.140625q0.15625 0.125 0.15625 0.34375q0 0.21875 -0.15625 0.359375q-0.140625 0.140625 -0.5 0.140625l-1.8125 0l0 -7.765625q0 -0.75 -0.453125 -1.234375q-0.453125 -0.5 -1.0625 -0.5q-0.53125 0 -1.140625 0.40625q-0.59375 0.390625 -1.34375 1.578125l0 6.53125l0.8125 0q0.359375 0 0.5 0.140625q0.15625 0.125 0.15625 0.34375q0 0.21875 -0.15625 0.359375q-0.140625 0.140625 -0.5 0.140625l-1.8125 0l0 -7.703125q0 -0.78125 -0.46875 -1.28125q-0.453125 -0.515625 -1.03125 -0.515625q-0.53125 0 -1.046875 0.328125q-0.71875 0.484375 -1.5 1.65625l0 6.53125l0.828125 0q0.359375 0 0.5 0.140625q0.15625 0.125 0.15625 0.34375q0 0.21875 -0.15625 0.359375q-0.140625 0.140625 -0.5 0.140625l-2.640625 0q-0.359375 0 -0.515625 -0.140625q-0.140625 -0.140625 -0.140625 -0.359375q0 -0.21875 0.140625 -0.34375q0.15625 -0.140625 0.515625 -0.140625l0.828125 0l0 -8.171875l-0.828125 0q-0.359375 0 -0.515625 -0.140625q-0.140625 -0.140625 -0.140625 -0.359375q0 -0.21875 0.140625 -0.359375q0.15625 -0.140625 0.515625 -0.140625l1.8125 0zm24.214844 5.3125l-10.03125 0q0.25 1.90625 1.59375 3.078125q1.34375 1.171875 3.328125 1.171875q1.09375 0 2.296875 -0.359375q1.21875 -0.375 1.984375 -0.96875q0.21875 -0.171875 0.375 -0.171875q0.1875 0 0.328125 0.140625q0.140625 0.140625 0.140625 0.34375q0 0.203125 -0.1875 0.390625q-0.5625 0.578125 -2.0 1.09375q-1.421875 0.515625 -2.9375 0.515625q-2.53125 0 -4.234375 -1.65625q-1.6875 -1.671875 -1.6875 -4.015625q0 -2.15625 1.578125 -3.6875q1.59375 -1.53125 3.9375 -1.53125q2.421875 0 3.96875 1.578125q1.5625 1.578125 1.546875 4.078125zm-1.0 -1.0q-0.296875 -1.625 -1.546875 -2.640625q-1.234375 -1.015625 -2.96875 -1.015625q-1.71875 0 -2.96875 1.015625q-1.234375 1.0 -1.53125 2.640625l9.015625 0zm6.8867188 -4.3125l0 1.5q1.03125 -1.046875 1.859375 -1.4375q0.84375 -0.40625 1.890625 -0.40625q1.125 0 2.046875 0.484375q0.65625 0.34375 1.1875 1.15625q0.53125 0.8125 0.53125 1.671875l0 6.203125l0.828125 0q0.359375 0 0.5 0.140625q0.15625 0.125 0.15625 0.34375q0 0.21875 -0.15625 0.359375q-0.140625 0.140625 -0.5 0.140625l-2.625 0q-0.375 0 -0.53125 -0.140625q-0.140625 -0.140625 -0.140625 -0.359375q0 -0.21875 0.140625 -0.34375q0.15625 -0.140625 0.53125 -0.140625l0.8125 0l0 -6.03125q0 -1.046875 -0.765625 -1.765625q-0.75 -0.71875 -2.03125 -0.71875q-0.96875 0 -1.6875 0.390625q-0.71875 0.390625 -2.046875 1.953125l0 6.171875l1.125 0q0.34375 0 0.5 0.140625q0.15625 0.125 0.15625 0.34375q0 0.21875 -0.15625 0.359375q-0.15625 0.140625 -0.5 0.140625l-3.21875 0q-0.34375 0 -0.5 -0.140625q-0.15625 -0.140625 -0.15625 -0.359375q0 -0.21875 0.15625 -0.34375q0.15625 -0.140625 0.5 -0.140625l1.109375 0l0 -8.171875l-0.828125 0q-0.34375 0 -0.5 -0.140625q-0.15625 -0.140625 -0.15625 -0.359375q0 -0.21875 0.15625 -0.359375q0.15625 -0.140625 0.5 -0.140625l1.8125 0zm15.574219 0l5.34375 0q0.34375 0 0.5 0.140625q0.15625 0.140625 0.15625 0.375q0 0.203125 -0.15625 0.34375q-0.15625 0.140625 -0.5 0.140625l-5.34375 0l0 6.546875q0 0.859375 0.671875 1.4375q0.6875 0.578125 2.015625 0.578125q1.0 0 2.15625 -0.296875q1.15625 -0.3125 1.8125 -0.6875q0.234375 -0.140625 0.375 -0.140625q0.1875 0 0.328125 0.140625q0.140625 0.140625 0.140625 0.34375q0 0.171875 -0.140625 0.328125q-0.375 0.390625 -1.828125 0.84375q-1.453125 0.453125 -2.765625 0.453125q-1.734375 0 -2.75 -0.8125q-1.015625 -0.8125 -1.015625 -2.1875l0 -6.546875l-1.8125 0q-0.359375 0 -0.515625 -0.140625q-0.140625 -0.140625 -0.140625 -0.359375q0 -0.21875 0.140625 -0.359375q0.15625 -0.140625 0.515625 -0.140625l1.8125 0l0 -2.90625q0 -0.34375 0.140625 -0.5q0.140625 -0.15625 0.34375 -0.15625q0.234375 0 0.375 0.15625q0.140625 0.15625 0.140625 0.5l0 2.90625z" fill-rule="nonzero"/><path fill="#010000" fill-opacity="0.0" d="m347.44626 182.17429l14.402344 0l0 27.1875l-14.402344 0l0 -27.1875z" fill-rule="nonzero"/><path fill="#d4d4d4" d="m354.44626 199.32663l0.421875 0q0.65625 0 1.125 0.46875q0.46875 0.453125 0.46875 1.109375q0 0.6875 -0.484375 1.15625q-0.46875 0.453125 -1.109375 0.453125l-0.421875 0q-0.65625 0 -1.125 -0.46875q-0.46875 -0.46875 -0.46875 -1.125q0 -0.671875 0.46875 -1.125q0.484375 -0.46875 1.125 -0.46875z" fill-rule="nonzero"/><path fill="#000000" fill-opacity="0.0" d="m361.8486 182.17429l201.63284 0l0 27.1875l-201.63284 0l0 -27.1875z" fill-rule="nonzero"/><path fill="#c8c8c8" d="m372.36423 193.811l0 -1.8125l2.3125 0q0.34375 0 0.5 0.140625q0.15625 0.140625 0.15625 0.375q0 0.203125 -0.15625 0.34375q-0.15625 0.140625 -0.5 0.140625l-1.328125 0l0 9.84375q0 0.984375 -0.421875 1.75q-0.28125 0.515625 -0.9375 1.0625q-0.65625 0.5625 -1.203125 0.796875q-0.53125 0.234375 -1.4375 0.234375l-2.78125 0q-0.359375 0 -0.515625 -0.140625q-0.140625 -0.140625 -0.140625 -0.359375q0 -0.21875 0.140625 -0.359375q0.15625 -0.140625 0.515625 -0.140625l2.8125 0.015625q0.875 0 1.5625 -0.453125q0.703125 -0.4375 1.15625 -1.296875q0.265625 -0.5 0.265625 -1.25l0 -2.96875q-1.578125 2.171875 -4.078125 2.171875q-2.03125 0 -3.5 -1.5q-1.46875 -1.515625 -1.46875 -3.625q0 -2.125 1.46875 -3.625q1.46875 -1.5 3.5 -1.5q2.5 0 4.078125 2.15625zm0 2.96875q0 -1.734375 -1.1875 -2.921875q-1.1875 -1.203125 -2.84375 -1.203125q-1.65625 0 -2.84375 1.203125q-1.171875 1.1875 -1.171875 2.921875q0 1.734375 1.171875 2.9375q1.1875 1.1875 2.84375 1.1875q1.65625 0 2.84375 -1.1875q1.1875 -1.203125 1.1875 -2.9375zm16.417969 0.53125l-10.03125 0q0.25 1.90625 1.59375 3.078125q1.34375 1.171875 3.328125 1.171875q1.09375 0 2.296875 -0.359375q1.21875 -0.375 1.984375 -0.96875q0.21875 -0.171875 0.375 -0.171875q0.1875 0 0.328125 0.140625q0.140625 0.140625 0.140625 0.34375q0 0.203125 -0.1875 0.390625q-0.5625 0.578125 -2.0 1.09375q-1.421875 0.515625 -2.9375 0.515625q-2.53125 0 -4.234375 -1.65625q-1.6875 -1.671875 -1.6875 -4.015625q0 -2.15625 1.578125 -3.6875q1.59375 -1.53125 3.9375 -1.53125q2.421875 0 3.96875 1.578125q1.5625 1.578125 1.546875 4.078125zm-1.0 -1.0q-0.296875 -1.625 -1.546875 -2.640625q-1.234375 -1.015625 -2.96875 -1.015625q-1.71875 0 -2.96875 1.015625q-1.234375 1.0 -1.53125 2.640625l9.015625 0zm8.058594 -4.3125l5.34375 0q0.34375 0 0.5 0.140625q0.15625 0.140625 0.15625 0.375q0 0.203125 -0.15625 0.34375q-0.15625 0.140625 -0.5 0.140625l-5.34375 0l0 6.546875q0 0.859375 0.671875 1.4375q0.6875 0.578125 2.015625 0.578125q1.0 0 2.15625 -0.296875q1.15625 -0.3125 1.8125 -0.6875q0.234375 -0.140625 0.375 -0.140625q0.1875 0 0.328125 0.140625q0.140625 0.140625 0.140625 0.34375q0 0.171875 -0.140625 0.328125q-0.375 0.390625 -1.828125 0.84375q-1.453125 0.453125 -2.765625 0.453125q-1.734375 0 -2.75 -0.8125q-1.015625 -0.8125 -1.015625 -2.1875l0 -6.546875l-1.8125 0q-0.359375 0 -0.515625 -0.140625q-0.140625 -0.140625 -0.140625 -0.359375q0 -0.21875 0.140625 -0.359375q0.15625 -0.140625 0.515625 -0.140625l1.8125 0l0 -2.90625q0 -0.34375 0.140625 -0.5q0.140625 -0.15625 0.34375 -0.15625q0.234375 0 0.375 0.15625q0.140625 0.15625 0.140625 0.5l0 2.90625zm13.214844 3.53125l0 5.640625l7.5625 0l0 -2.90625q0 -0.359375 0.140625 -0.5q0.140625 -0.15625 0.359375 -0.15625q0.21875 0 0.34375 0.15625q0.140625 0.140625 0.140625 0.5l0 3.890625l-10.859375 0q-0.34375 0 -0.5 -0.140625q-0.15625 -0.140625 -0.15625 -0.359375q0 -0.21875 0.15625 -0.34375q0.15625 -0.140625 0.5 -0.140625l1.328125 0l0 -11.75l-1.328125 0q-0.34375 0 -0.5 -0.125q-0.15625 -0.140625 -0.15625 -0.359375q0 -0.21875 0.15625 -0.359375q0.15625 -0.140625 0.5 -0.140625l10.34375 0l0 3.390625q0 0.359375 -0.140625 0.515625q-0.125 0.140625 -0.34375 0.140625q-0.21875 0 -0.359375 -0.140625q-0.140625 -0.15625 -0.140625 -0.515625l0 -2.40625l-7.046875 0l0 5.125l3.53125 0l0 -1.109375q0 -0.359375 0.140625 -0.5q0.140625 -0.15625 0.359375 -0.15625q0.203125 0 0.34375 0.15625q0.140625 0.140625 0.140625 0.5l0 3.203125q0 0.359375 -0.140625 0.515625q-0.140625 0.140625 -0.34375 0.140625q-0.21875 0 -0.359375 -0.140625q-0.140625 -0.15625 -0.140625 -0.515625l0 -1.109375l-3.53125 0zm18.105469 -8.078125l0 13.71875l3.859375 0q0.375 0 0.515625 0.140625q0.15625 0.125 0.15625 0.34375q0 0.21875 -0.15625 0.359375q-0.140625 0.140625 -0.515625 0.140625l-8.71875 0q-0.34375 0 -0.5 -0.140625q-0.15625 -0.140625 -0.15625 -0.359375q0 -0.21875 0.15625 -0.34375q0.15625 -0.140625 0.5 -0.140625l3.875 0l0 -12.734375l-2.84375 0q-0.34375 0 -0.5 -0.140625q-0.15625 -0.140625 -0.15625 -0.359375q0 -0.203125 0.140625 -0.34375q0.15625 -0.140625 0.515625 -0.140625l3.828125 0zm19.230469 9.859375l-10.03125 0q0.25 1.90625 1.59375 3.078125q1.34375 1.171875 3.328125 1.171875q1.09375 0 2.296875 -0.359375q1.21875 -0.375 1.984375 -0.96875q0.21875 -0.171875 0.375 -0.171875q0.1875 0 0.328125 0.140625q0.140625 0.140625 0.140625 0.34375q0 0.203125 -0.1875 0.390625q-0.5625 0.578125 -2.0 1.09375q-1.421875 0.515625 -2.9375 0.515625q-2.53125 0 -4.234375 -1.65625q-1.6875 -1.671875 -1.6875 -4.015625q0 -2.15625 1.578125 -3.6875q1.59375 -1.53125 3.9375 -1.53125q2.421875 0 3.96875 1.578125q1.5625 1.578125 1.546875 4.078125zm-1.0 -1.0q-0.296875 -1.625 -1.546875 -2.640625q-1.234375 -1.015625 -2.96875 -1.015625q-1.71875 0 -2.96875 1.015625q-1.234375 1.0 -1.53125 2.640625l9.015625 0zm5.5898438 -4.3125l0 1.0q1.25 -1.34375 2.515625 -1.34375q0.765625 0 1.34375 0.40625q0.578125 0.40625 0.953125 1.21875q0.65625 -0.8125 1.328125 -1.21875q0.6875 -0.40625 1.359375 -0.40625q1.0625 0 1.703125 0.6875q0.828125 0.890625 0.828125 1.953125l0 6.875l0.828125 0q0.359375 0 0.5 0.140625q0.15625 0.125 0.15625 0.34375q0 0.21875 -0.15625 0.359375q-0.140625 0.140625 -0.5 0.140625l-1.8125 0l0 -7.765625q0 -0.75 -0.453125 -1.234375q-0.453125 -0.5 -1.0625 -0.5q-0.53125 0 -1.140625 0.40625q-0.59375 0.390625 -1.34375 1.578125l0 6.53125l0.8125 0q0.359375 0 0.5 0.140625q0.15625 0.125 0.15625 0.34375q0 0.21875 -0.15625 0.359375q-0.140625 0.140625 -0.5 0.140625l-1.8125 0l0 -7.703125q0 -0.78125 -0.46875 -1.28125q-0.453125 -0.515625 -1.03125 -0.515625q-0.53125 0 -1.046875 0.328125q-0.71875 0.484375 -1.5 1.65625l0 6.53125l0.828125 0q0.359375 0 0.5 0.140625q0.15625 0.125 0.15625 0.34375q0 0.21875 -0.15625 0.359375q-0.140625 0.140625 -0.5 0.140625l-2.640625 0q-0.359375 0 -0.515625 -0.140625q-0.140625 -0.140625 -0.140625 -0.359375q0 -0.21875 0.140625 -0.34375q0.15625 -0.140625 0.515625 -0.140625l0.828125 0l0 -8.171875l-0.828125 0q-0.359375 0 -0.515625 -0.140625q-0.140625 -0.140625 -0.140625 -0.359375q0 -0.21875 0.140625 -0.359375q0.15625 -0.140625 0.515625 -0.140625l1.8125 0zm24.214844 5.3125l-10.03125 0q0.25 1.90625 1.59375 3.078125q1.34375 1.171875 3.328125 1.171875q1.09375 0 2.296875 -0.359375q1.21875 -0.375 1.984375 -0.96875q0.21875 -0.171875 0.375 -0.171875q0.1875 0 0.328125 0.140625q0.140625 0.140625 0.140625 0.34375q0 0.203125 -0.1875 0.390625q-0.5625 0.578125 -2.0 1.09375q-1.421875 0.515625 -2.9375 0.515625q-2.53125 0 -4.234375 -1.65625q-1.6875 -1.671875 -1.6875 -4.015625q0 -2.15625 1.578125 -3.6875q1.59375 -1.53125 3.9375 -1.53125q2.421875 0 3.96875 1.578125q1.5625 1.578125 1.546875 4.078125zm-1.0 -1.0q-0.296875 -1.625 -1.546875 -2.640625q-1.234375 -1.015625 -2.96875 -1.015625q-1.71875 0 -2.96875 1.015625q-1.234375 1.0 -1.53125 2.640625l9.015625 0zm6.8867188 -4.3125l0 1.5q1.03125 -1.046875 1.859375 -1.4375q0.84375 -0.40625 1.890625 -0.40625q1.125 0 2.046875 0.484375q0.65625 0.34375 1.1875 1.15625q0.53125 0.8125 0.53125 1.671875l0 6.203125l0.828125 0q0.359375 0 0.5 0.140625q0.15625 0.125 0.15625 0.34375q0 0.21875 -0.15625 0.359375q-0.140625 0.140625 -0.5 0.140625l-2.625 0q-0.375 0 -0.53125 -0.140625q-0.140625 -0.140625 -0.140625 -0.359375q0 -0.21875 0.140625 -0.34375q0.15625 -0.140625 0.53125 -0.140625l0.8125 0l0 -6.03125q0 -1.046875 -0.765625 -1.765625q-0.75 -0.71875 -2.03125 -0.71875q-0.96875 0 -1.6875 0.390625q-0.71875 0.390625 -2.046875 1.953125l0 6.171875l1.125 0q0.34375 0 0.5 0.140625q0.15625 0.125 0.15625 0.34375q0 0.21875 -0.15625 0.359375q-0.15625 0.140625 -0.5 0.140625l-3.21875 0q-0.34375 0 -0.5 -0.140625q-0.15625 -0.140625 -0.15625 -0.359375q0 -0.21875 0.15625 -0.34375q0.15625 -0.140625 0.5 -0.140625l1.109375 0l0 -8.171875l-0.828125 0q-0.34375 0 -0.5 -0.140625q-0.15625 -0.140625 -0.15625 -0.359375q0 -0.21875 0.15625 -0.359375q0.15625 -0.140625 0.5 -0.140625l1.8125 0zm15.574219 0l5.34375 0q0.34375 0 0.5 0.140625q0.15625 0.140625 0.15625 0.375q0 0.203125 -0.15625 0.34375q-0.15625 0.140625 -0.5 0.140625l-5.34375 0l0 6.546875q0 0.859375 0.671875 1.4375q0.6875 0.578125 2.015625 0.578125q1.0 0 2.15625 -0.296875q1.15625 -0.3125 1.8125 -0.6875q0.234375 -0.140625 0.375 -0.140625q0.1875 0 0.328125 0.140625q0.140625 0.140625 0.140625 0.34375q0 0.171875 -0.140625 0.328125q-0.375 0.390625 -1.828125 0.84375q-1.453125 0.453125 -2.765625 0.453125q-1.734375 0 -2.75 -0.8125q-1.015625 -0.8125 -1.015625 -2.1875l0 -6.546875l-1.8125 0q-0.359375 0 -0.515625 -0.140625q-0.140625 -0.140625 -0.140625 -0.359375q0 -0.21875 0.140625 -0.359375q0.15625 -0.140625 0.515625 -0.140625l1.8125 0l0 -2.90625q0 -0.34375 0.140625 -0.5q0.140625 -0.15625 0.34375 -0.15625q0.234375 0 0.375 0.15625q0.140625 0.15625 0.140625 0.5l0 2.90625zm12.214844 9.171875l0 -11.75l-1.328125 0q-0.34375 0 -0.5 -0.125q-0.15625 -0.140625 -0.15625 -0.359375q0 -0.21875 0.15625 -0.359375q0.15625 -0.140625 0.5 -0.140625l6.1875305 0q1.84375 0 3.0 1.0625q1.15625 1.0625 1.15625 2.5q0 1.796875 -1.9375 2.90625q1.53125 0.5625 2.25 1.484375q0.71875 0.90625 0.71875 2.0q0 0.984375 -0.46875 1.796875q-0.46875 0.8125 -1.4375 1.390625q-0.96875 0.578125 -2.109375 0.578125l-7.3594055 0q-0.34375 0 -0.5 -0.140625q-0.15625 -0.140625 -0.15625 -0.359375q0 -0.21875 0.15625 -0.34375q0.15625 -0.140625 0.5 -0.140625l1.328125 0zm0.984375 -6.640625l3.4844055 0q1.109375 0 2.03125 -0.40625q0.71875 -0.328125 1.109375 -0.9375q0.40625 -0.625 0.40625 -1.28125q0 -0.921875 -0.875 -1.703125q-0.859375 -0.78125 -2.25 -0.78125l-3.9062805 0l0 5.109375zm0 6.640625l4.9844055 0q0.953125 0 1.65625 -0.421875q0.703125 -0.421875 1.0625 -1.046875q0.359375 -0.625 0.359375 -1.28125q0 -0.75 -0.53125 -1.453125q-0.515625 -0.703125 -1.4375 -1.0625q-0.921875 -0.375 -2.546875 -0.375l-3.5469055 0l0 5.640625zm17.683624 0.984375l-4.5625 -9.15625l-0.296875 0q-0.359375 0 -0.515625 -0.140625q-0.140625 -0.140625 -0.140625 -0.34375q0 -0.15625 0.078125 -0.28125q0.078125 -0.125 0.1875 -0.171875q0.125 -0.0625 0.390625 -0.0625l2.6875 0q0.359375 0 0.5 0.140625q0.15625 0.140625 0.15625 0.375q0 0.203125 -0.15625 0.34375q-0.140625 0.140625 -0.5 0.140625l-1.3125 0l4.015625 8.078125l3.953125 -8.078125l-1.3125 0q-0.359375 0 -0.515625 -0.140625q-0.140625 -0.140625 -0.140625 -0.359375q0 -0.21875 0.140625 -0.359375q0.15625 -0.140625 0.515625 -0.140625l2.671875 0q0.375 0 0.515625 0.140625q0.15625 0.140625 0.15625 0.375q0 0.140625 -0.09375 0.28125q-0.09375 0.125 -0.21875 0.171875q-0.109375 0.03125 -0.640625 0.03125l-6.234375 12.703125l1.53125 0q0.34375 0 0.5 0.125q0.15625 0.140625 0.15625 0.359375q0 0.21875 -0.15625 0.359375q-0.15625 0.140625 -0.5 0.140625l-5.671875 0q-0.359375 0 -0.515625 -0.140625q-0.140625 -0.140625 -0.140625 -0.359375q0 -0.21875 0.140625 -0.359375q0.15625 -0.125 0.515625 -0.125l3.078125 0l1.734375 -3.546875zm14.839844 -12.734375l0 11.75l3.375 0q0.34375 0 0.5 0.140625q0.15625 0.125 0.15625 0.34375q0 0.21875 -0.15625 0.359375q-0.15625 0.140625 -0.5 0.140625l-7.734375 0q-0.359375 0 -0.515625 -0.140625q-0.140625 -0.140625 -0.140625 -0.359375q0 -0.21875 0.140625 -0.34375q0.15625 -0.140625 0.515625 -0.140625l3.375 0l0 -11.75l-3.375 0q-0.359375 0 -0.515625 -0.125q-0.140625 -0.140625 -0.140625 -0.359375q0 -0.21875 0.140625 -0.359375q0.15625 -0.140625 0.515625 -0.140625l7.734375 0q0.34375 0 0.5 0.140625q0.15625 0.140625 0.15625 0.359375q0 0.21875 -0.15625 0.359375q-0.15625 0.125 -0.5 0.125l-3.375 0zm18.730469 -1.96875l0 13.71875l1.3125 0q0.359375 0 0.5 0.140625q0.15625 0.125 0.15625 0.34375q0 0.21875 -0.15625 0.359375q-0.140625 0.140625 -0.5 0.140625l-2.3125 0l0 -1.953125q-1.71875 2.34375 -4.34375 2.34375q-1.34375 0 -2.578125 -0.703125q-1.21875 -0.71875 -1.921875 -2.03125q-0.703125 -1.3125 -0.703125 -2.703125q0 -1.40625 0.703125 -2.71875q0.703125 -1.3125 1.921875 -2.015625q1.234375 -0.71875 2.578125 -0.71875q2.578125 0 4.34375 2.34375l0 -5.5625l-1.3125 0q-0.359375 0 -0.515625 -0.140625q-0.15625 -0.140625 -0.15625 -0.359375q0 -0.203125 0.15625 -0.34375q0.15625 -0.140625 0.515625 -0.140625l2.3125 0zm-1.0 9.65625q0 -1.875 -1.265625 -3.15625q-1.265625 -1.296875 -3.015625 -1.296875q-1.75 0 -3.015625 1.296875q-1.265625 1.28125 -1.265625 3.15625q0 1.859375 1.265625 3.15625q1.265625 1.296875 3.015625 1.296875q1.75 0 3.015625 -1.296875q1.265625 -1.296875 1.265625 -3.15625z" fill-rule="nonzero"/><path fill="#adadad" d="m569.0908 207.20163q-1.734375 -2.203125 -2.953125 -5.15625q-1.203125 -2.953125 -1.203125 -6.109375q0 -2.796875 0.90625 -5.34375q1.046875 -2.96875 3.25 -5.90625l1.515625 0q-1.421875 2.4375 -1.875 3.46875q-0.71875 1.625 -1.125 3.375q-0.5 2.203125 -0.5 4.40625q0 5.640625 3.5 11.265625l-1.515625 0zm3.9765625 -19.796875l0 -2.4375l2.109375 0l0 2.4375l-2.109375 0zm0 14.75l0 -12.453125l2.109375 0l0 12.453125l-2.109375 0zm13.394531 0l0 -1.578125q-1.1875 1.859375 -3.484375 1.859375q-1.484375 0 -2.734375 -0.8125q-1.25 -0.828125 -1.9375 -2.296875q-0.671875 -1.46875 -0.671875 -3.390625q0 -1.859375 0.609375 -3.375q0.625 -1.515625 1.859375 -2.328125q1.25 -0.8125 2.78125 -0.8125q1.125 0 2.0 0.484375q0.890625 0.46875 1.4375 1.234375l0 -6.171875l2.09375 0l0 17.1875l-1.953125 0zm-6.671875 -6.21875q0 2.390625 1.0 3.578125q1.015625 1.1875 2.390625 1.1875q1.390625 0 2.34375 -1.125q0.96875 -1.140625 0.96875 -3.453125q0 -2.5625 -0.984375 -3.75q-0.984375 -1.203125 -2.421875 -1.203125q-1.40625 0 -2.359375 1.15625q-0.9375 1.140625 -0.9375 3.609375zm13.332031 11.265625l-1.515625 0q3.5 -5.625 3.5 -11.265625q0 -2.203125 -0.5 -4.359375q-0.390625 -1.765625 -1.109375 -3.375q-0.453125 -1.0625 -1.890625 -3.515625l1.515625 0q2.203125 2.9375 3.25 5.90625q0.90625 2.546875 0.90625 5.34375q0 3.15625 -1.21875 6.109375q-1.203125 2.953125 -2.9375 5.15625z" fill-rule="nonzero"/><path fill="#000000" fill-opacity="0.0" d="m598.1455 182.17429l14.402344 0l0 27.1875l-14.402344 0l0 -27.1875z" fill-rule="nonzero"/><path fill="#d4d4d4" d="m605.1299 191.9985l0.4375 0q0.65625 0 1.109375 0.46875q0.46875 0.46875 0.46875 1.125q0 0.6875 -0.46875 1.140625q-0.46875 0.453125 -1.109375 0.453125l-0.4375 0q-0.65625 0 -1.125 -0.46875q-0.453125 -0.46875 -0.453125 -1.109375q0 -0.6875 0.46875 -1.140625q0.484375 -0.46875 1.109375 -0.46875zm-1.703125 6.609375l3.09375 0l-3.328125 5.453125q-0.234375 0.390625 -0.390625 0.5q-0.140625 0.109375 -0.34375 0.109375q-0.28125 0 -0.46875 -0.1875q-0.1875 -0.171875 -0.1875 -0.421875q0 -0.140625 0.078125 -0.359375l1.546875 -5.09375z" fill-rule="nonzero"/><path fill="#1e1e1e" d="m41.72441 228.23476l440.0216 0l0 28.800003l-440.0216 0l0 -28.800003z" fill-rule="nonzero"/><path fill="#000000" fill-opacity="0.0" d="m41.72441 232.41298l108.7677 0l0 25.665268l-108.7677 0l0 -25.665268z" fill-rule="nonzero"/><path fill="#c8c8c8" d="m45.490036 245.02475l0 5.328125l7.15625 0l0 -2.75q0 -0.328125 0.125 -0.46875q0.125 -0.15625 0.34375 -0.15625q0.203125 0 0.328125 0.15625q0.125 0.140625 0.125 0.46875l0 3.671875l-10.25 0q-0.328125 0 -0.484375 -0.125q-0.140625 -0.140625 -0.140625 -0.34375q0 -0.203125 0.140625 -0.328125q0.15625 -0.125 0.484375 -0.125l1.25 0l0 -11.09375l-1.25 0q-0.328125 0 -0.484375 -0.125q-0.140625 -0.125 -0.140625 -0.34375q0 -0.203125 0.140625 -0.328125q0.15625 -0.125 0.484375 -0.125l9.765625 0l0 3.1875q0 0.328125 -0.125 0.484375q-0.125 0.140625 -0.34375 0.140625q-0.203125 0 -0.328125 -0.140625q-0.125 -0.15625 -0.125 -0.484375l0 -2.265625l-6.671875 0l0 4.84375l3.34375 0l0 -1.0625q0 -0.328125 0.125 -0.46875q0.140625 -0.140625 0.34375 -0.140625q0.203125 0 0.328125 0.140625q0.140625 0.140625 0.140625 0.46875l0 3.03125q0 0.328125 -0.140625 0.484375q-0.125 0.140625 -0.328125 0.140625q-0.203125 0 -0.34375 -0.140625q-0.125 -0.15625 -0.125 -0.484375l0 -1.046875l-3.34375 0zm17.095963 -7.640625l0 12.96875l3.65625 0q0.34375 0 0.484375 0.125q0.140625 0.125 0.140625 0.328125q0 0.203125 -0.140625 0.34375q-0.140625 0.125 -0.484375 0.125l-8.234375 0q-0.328125 0 -0.484375 -0.125q-0.140625 -0.140625 -0.140625 -0.34375q0 -0.203125 0.140625 -0.328125q0.15625 -0.125 0.484375 -0.125l3.65625 0l0 -12.015625l-2.6875 0q-0.328125 0 -0.484375 -0.125q-0.140625 -0.140625 -0.140625 -0.359375q0 -0.203125 0.140625 -0.328125q0.140625 -0.140625 0.484375 -0.140625l3.609375 0zm18.158463 9.328125l-9.46875 0q0.234375 1.796875 1.5 2.90625q1.28125 1.09375 3.140625 1.09375q1.046875 0 2.1875 -0.34375q1.140625 -0.34375 1.859375 -0.90625q0.203125 -0.171875 0.359375 -0.171875q0.171875 0 0.296875 0.140625q0.140625 0.140625 0.140625 0.328125q0 0.1875 -0.171875 0.359375q-0.53125 0.5625 -1.890625 1.046875q-1.34375 0.46875 -2.78125 0.46875q-2.390625 0 -3.984375 -1.5625q-1.59375 -1.5625 -1.59375 -3.78125q0 -2.03125 1.484375 -3.46875q1.5 -1.453125 3.71875 -1.453125q2.28125 0 3.75 1.484375q1.46875 1.484375 1.453125 3.859375zm-0.9375 -0.953125q-0.28125 -1.53125 -1.46875 -2.484375q-1.171875 -0.96875 -2.796875 -0.96875q-1.625 0 -2.796875 0.953125q-1.171875 0.953125 -1.453125 2.5l8.515625 0zm5.2678375 -4.0625l0 0.9375q1.1875 -1.265625 2.375 -1.265625q0.734375 0 1.265625 0.375q0.546875 0.375 0.90625 1.15625q0.625 -0.78125 1.25 -1.15625q0.640625 -0.375 1.28125 -0.375q1.015625 0 1.609375 0.640625q0.78125 0.84375 0.78125 1.84375l0 6.5l0.796875 0q0.328125 0 0.46875 0.125q0.140625 0.125 0.140625 0.328125q0 0.203125 -0.140625 0.34375q-0.140625 0.125 -0.46875 0.125l-1.71875 0l0 -7.328125q0 -0.71875 -0.4375 -1.171875q-0.421875 -0.46875 -0.984375 -0.46875q-0.515625 0 -1.078125 0.390625q-0.5625 0.375 -1.28125 1.484375l0 6.171875l0.765625 0q0.34375 0 0.484375 0.125q0.140625 0.125 0.140625 0.328125q0 0.203125 -0.140625 0.34375q-0.140625 0.125 -0.484375 0.125l-1.703125 0l0 -7.265625q0 -0.75 -0.4375 -1.21875q-0.4375 -0.484375 -0.984375 -0.484375q-0.5 0 -0.984375 0.3125q-0.671875 0.453125 -1.421875 1.5625l0 6.171875l0.796875 0q0.328125 0 0.46875 0.125q0.140625 0.125 0.140625 0.328125q0 0.203125 -0.140625 0.34375q-0.140625 0.125 -0.46875 0.125l-2.5 0q-0.34375 0 -0.484375 -0.125q-0.140625 -0.140625 -0.140625 -0.34375q0 -0.203125 0.140625 -0.328125q0.140625 -0.125 0.484375 -0.125l0.78125 0l0 -7.71875l-0.78125 0q-0.34375 0 -0.484375 -0.125q-0.140625 -0.140625 -0.140625 -0.34375q0 -0.203125 0.140625 -0.328125q0.140625 -0.140625 0.484375 -0.140625l1.703125 0zm22.861588 5.015625l-9.46875 0q0.234375 1.796875 1.5 2.90625q1.28125 1.09375 3.140625 1.09375q1.046875 0 2.1875 -0.34375q1.140625 -0.34375 1.859375 -0.90625q0.203125 -0.171875 0.359375 -0.171875q0.171875 0 0.296875 0.140625q0.140625 0.140625 0.140625 0.328125q0 0.1875 -0.171875 0.359375q-0.53125 0.5625 -1.890625 1.046875q-1.34375 0.46875 -2.78125 0.46875q-2.390625 0 -3.984375 -1.5625q-1.59375 -1.5625 -1.59375 -3.78125q0 -2.03125 1.484375 -3.46875q1.5 -1.453125 3.71875 -1.453125q2.28125 0 3.75 1.484375q1.46875 1.484375 1.453125 3.859375zm-0.9375 -0.953125q-0.28125 -1.53125 -1.46875 -2.484375q-1.171875 -0.96875 -2.796875 -0.96875q-1.625 0 -2.796875 0.953125q-1.171875 0.953125 -1.453125 2.5l8.515625 0zm6.5022125 -4.0625l0 1.40625q0.96875 -0.984375 1.75 -1.359375q0.796875 -0.375 1.78125 -0.375q1.0625 0 1.9375 0.453125q0.609375 0.328125 1.109375 1.09375q0.515625 0.765625 0.515625 1.578125l0 5.859375l0.78125 0q0.328125 0 0.46875 0.125q0.15625 0.125 0.15625 0.328125q0 0.203125 -0.15625 0.34375q-0.140625 0.125 -0.46875 0.125l-2.484375 0q-0.34375 0 -0.5 -0.125q-0.140625 -0.140625 -0.140625 -0.34375q0 -0.203125 0.140625 -0.328125q0.15625 -0.125 0.5 -0.125l0.765625 0l0 -5.703125q0 -0.984375 -0.71875 -1.65625q-0.71875 -0.6875 -1.921875 -0.6875q-0.921875 0 -1.59375 0.375q-0.671875 0.359375 -1.921875 1.828125l0 5.84375l1.046875 0q0.328125 0 0.46875 0.125q0.15625 0.125 0.15625 0.328125q0 0.203125 -0.15625 0.34375q-0.140625 0.125 -0.46875 0.125l-3.03125 0q-0.328125 0 -0.484375 -0.125q-0.140625 -0.140625 -0.140625 -0.34375q0 -0.203125 0.140625 -0.328125q0.15625 -0.125 0.484375 -0.125l1.046875 0l0 -7.71875l-0.78125 0q-0.328125 0 -0.484375 -0.125q-0.140625 -0.140625 -0.140625 -0.34375q0 -0.203125 0.140625 -0.328125q0.15625 -0.140625 0.484375 -0.140625l1.71875 0zm14.689713 0l5.046875 0q0.328125 0 0.46875 0.140625q0.140625 0.125 0.140625 0.328125q0 0.203125 -0.140625 0.34375q-0.140625 0.125 -0.46875 0.125l-5.046875 0l0 6.1875q0 0.8125 0.640625 1.359375q0.65625 0.53125 1.90625 0.53125q0.9375 0 2.03125 -0.28125q1.09375 -0.28125 1.703125 -0.640625q0.21875 -0.140625 0.359375 -0.140625q0.1875 0 0.3125 0.140625q0.140625 0.140625 0.140625 0.328125q0 0.15625 -0.140625 0.296875q-0.359375 0.375 -1.734375 0.796875q-1.359375 0.421875 -2.609375 0.421875q-1.625 0 -2.59375 -0.75q-0.953125 -0.765625 -0.953125 -2.0625l0 -6.1875l-1.71875 0q-0.328125 0 -0.484375 -0.125q-0.140625 -0.140625 -0.140625 -0.34375q0 -0.203125 0.140625 -0.328125q0.15625 -0.140625 0.484375 -0.140625l1.71875 0l0 -2.75q0 -0.328125 0.125 -0.46875q0.140625 -0.140625 0.328125 -0.140625q0.21875 0 0.34375 0.140625q0.140625 0.140625 0.140625 0.46875l0 2.75zm20.689713 4.8125q0 2.125 -1.515625 3.625q-1.515625 1.5 -3.671875 1.5q-2.15625 0 -3.671875 -1.5q-1.515625 -1.515625 -1.515625 -3.625q0 -2.125 1.515625 -3.625q1.515625 -1.515625 3.671875 -1.515625q2.15625 0 3.671875 1.5q1.515625 1.5 1.515625 3.640625zm-0.9375 0q0 -1.75 -1.25 -2.96875q-1.234375 -1.234375 -3.0 -1.234375q-1.78125 0 -3.03125 1.234375q-1.234375 1.234375 -1.234375 2.96875q0 1.71875 1.234375 2.96875q1.25 1.234375 3.03125 1.234375q1.765625 0 3.0 -1.234375q1.25 -1.234375 1.25 -2.96875z" fill-rule="nonzero"/><path fill="#010000" fill-opacity="0.0" d="m150.49211 231.29428l14.402344 0l0 27.1875l-14.402344 0l0 -27.1875z" fill-rule="nonzero"/><path fill="#d4d4d4" d="m157.49211 248.44662l0.421875 0q0.65625 0 1.125 0.46875q0.46875 0.453125 0.46875 1.109375q0 0.6875 -0.484375 1.15625q-0.46875 0.453125 -1.109375 0.453125l-0.421875 0q-0.65625 0 -1.125 -0.46875q-0.46875 -0.46875 -0.46875 -1.125q0 -0.671875 0.46875 -1.125q0.484375 -0.46875 1.125 -0.46875z" fill-rule="nonzero"/><path fill="#000000" fill-opacity="0.0" d="m164.89445 231.29428l72.01172 0l0 27.1875l-72.01172 0l0 -27.1875z" fill-rule="nonzero"/><path fill="#c8c8c8" d="m175.34758 241.77475q0 -0.34375 0.140625 -0.5q0.140625 -0.15625 0.359375 -0.15625q0.21875 0 0.359375 0.15625q0.140625 0.15625 0.140625 0.515625l0 1.6875q0 0.359375 -0.140625 0.515625q-0.140625 0.140625 -0.359375 0.140625q-0.203125 0 -0.34375 -0.125q-0.125 -0.125 -0.15625 -0.421875q-0.0625 -0.703125 -0.71875 -1.15625q-0.96875 -0.65625 -2.546875 -0.65625q-1.65625 0 -2.5625 0.65625q-0.703125 0.515625 -0.703125 1.125q0 0.703125 0.828125 1.171875q0.5625 0.328125 2.125 0.515625q2.0625 0.21875 2.859375 0.5q1.125 0.40625 1.6875 1.140625q0.5625 0.71875 0.5625 1.5625q0 1.25 -1.21875 2.234375q-1.203125 0.984375 -3.53125 0.984375q-2.328125 0 -3.828125 -1.1875q0 0.390625 -0.046875 0.515625q-0.046875 0.109375 -0.171875 0.203125q-0.109375 0.078125 -0.265625 0.078125q-0.21875 0 -0.359375 -0.15625q-0.140625 -0.15625 -0.140625 -0.5l0 -2.03125q0 -0.34375 0.140625 -0.5q0.140625 -0.15625 0.359375 -0.15625q0.203125 0 0.34375 0.15625q0.15625 0.140625 0.15625 0.390625q0 0.53125 0.265625 0.890625q0.421875 0.5625 1.3125 0.9375q0.890625 0.375 2.203125 0.375q1.921875 0 2.859375 -0.71875q0.9375 -0.71875 0.9375 -1.515625q0 -0.90625 -0.953125 -1.46875q-0.96875 -0.546875 -2.796875 -0.734375q-1.828125 -0.1875 -2.625 -0.484375q-0.796875 -0.3125 -1.25 -0.921875q-0.4375 -0.609375 -0.4375 -1.3125q0 -1.265625 1.234375 -2.0q1.25 -0.75 2.96875 -0.75q2.03125 0 3.3125 1.0zm9.136719 -0.65625l5.34375 0q0.34375 0 0.5 0.140625q0.15625 0.140625 0.15625 0.375q0 0.203125 -0.15625 0.34375q-0.15625 0.140625 -0.5 0.140625l-5.34375 0l0 6.546875q0 0.859375 0.671875 1.4375q0.6875 0.578125 2.015625 0.578125q1.0 0 2.15625 -0.296875q1.15625 -0.3125 1.8125 -0.6875q0.234375 -0.140625 0.375 -0.140625q0.1875 0 0.328125 0.140625q0.140625 0.140625 0.140625 0.34375q0 0.171875 -0.140625 0.328125q-0.375 0.390625 -1.828125 0.84375q-1.453125 0.453125 -2.765625 0.453125q-1.734375 0 -2.75 -0.8125q-1.015625 -0.8125 -1.015625 -2.1875l0 -6.546875l-1.8125 0q-0.359375 0 -0.515625 -0.140625q-0.140625 -0.140625 -0.140625 -0.359375q0 -0.21875 0.140625 -0.359375q0.15625 -0.140625 0.515625 -0.140625l1.8125 0l0 -2.90625q0 -0.34375 0.140625 -0.5q0.140625 -0.15625 0.34375 -0.15625q0.234375 0 0.375 0.15625q0.140625 0.15625 0.140625 0.5l0 2.90625zm16.480469 10.15625l-4.5625 -9.15625l-0.296875 0q-0.359375 0 -0.515625 -0.140625q-0.140625 -0.140625 -0.140625 -0.34375q0 -0.15625 0.078125 -0.28125q0.078125 -0.125 0.1875 -0.171875q0.125 -0.0625 0.390625 -0.0625l2.6875 0q0.359375 0 0.5 0.140625q0.15625 0.140625 0.15625 0.375q0 0.203125 -0.15625 0.34375q-0.140625 0.140625 -0.5 0.140625l-1.3125 0l4.015625 8.078125l3.953125 -8.078125l-1.3125 0q-0.359375 0 -0.515625 -0.140625q-0.140625 -0.140625 -0.140625 -0.359375q0 -0.21875 0.140625 -0.359375q0.15625 -0.140625 0.515625 -0.140625l2.671875 0q0.375 0 0.515625 0.140625q0.15625 0.140625 0.15625 0.375q0 0.140625 -0.09375 0.28125q-0.09375 0.125 -0.21875 0.171875q-0.109375 0.03125 -0.640625 0.03125l-6.234375 12.703125l1.53125 0q0.34375 0 0.5 0.125q0.15625 0.140625 0.15625 0.359375q0 0.21875 -0.15625 0.359375q-0.15625 0.140625 -0.5 0.140625l-5.671875 0q-0.359375 0 -0.515625 -0.140625q-0.140625 -0.140625 -0.140625 -0.359375q0 -0.21875 0.140625 -0.359375q0.15625 -0.125 0.515625 -0.125l3.078125 0l1.734375 -3.546875zm14.839844 -14.703125l0 13.71875l3.859375 0q0.375 0 0.515625 0.140625q0.15625 0.125 0.15625 0.34375q0 0.21875 -0.15625 0.359375q-0.140625 0.140625 -0.515625 0.140625l-8.71875 0q-0.34375 0 -0.5 -0.140625q-0.15625 -0.140625 -0.15625 -0.359375q0 -0.21875 0.15625 -0.34375q0.15625 -0.140625 0.5 -0.140625l3.875 0l0 -12.734375l-2.84375 0q-0.34375 0 -0.5 -0.140625q-0.15625 -0.140625 -0.15625 -0.359375q0 -0.203125 0.140625 -0.34375q0.15625 -0.140625 0.515625 -0.140625l3.828125 0zm19.230469 9.859375l-10.03125 0q0.25 1.90625 1.59375 3.078125q1.34375 1.171875 3.328125 1.171875q1.09375 0 2.296875 -0.359375q1.21875 -0.375 1.984375 -0.96875q0.21875 -0.171875 0.375 -0.171875q0.1875 0 0.328125 0.140625q0.140625 0.140625 0.140625 0.34375q0 0.203125 -0.1875 0.390625q-0.5625 0.578125 -2.0 1.09375q-1.421875 0.515625 -2.9375 0.515625q-2.53125 0 -4.234375 -1.65625q-1.6875 -1.671875 -1.6875 -4.015625q0 -2.15625 1.578125 -3.6875q1.59375 -1.53125 3.9375 -1.53125q2.421875 0 3.96875 1.578125q1.5625 1.578125 1.546875 4.078125zm-1.0 -1.0q-0.296875 -1.625 -1.546875 -2.640625q-1.234375 -1.015625 -2.96875 -1.015625q-1.71875 0 -2.96875 1.015625q-1.234375 1.0 -1.53125 2.640625l9.015625 0z" fill-rule="nonzero"/><path fill="#010000" fill-opacity="0.0" d="m236.90617 231.29428l14.402344 0l0 27.1875l-14.402344 0l0 -27.1875z" fill-rule="nonzero"/><path fill="#d4d4d4" d="m243.90617 248.44662l0.421875 0q0.65625 0 1.125 0.46875q0.46875 0.453125 0.46875 1.109375q0 0.6875 -0.484375 1.15625q-0.46875 0.453125 -1.109375 0.453125l-0.421875 0q-0.65625 0 -1.125 -0.46875q-0.46875 -0.46875 -0.46875 -1.125q0 -0.671875 0.46875 -1.125q0.484375 -0.46875 1.125 -0.46875z" fill-rule="nonzero"/><path fill="#000000" fill-opacity="0.0" d="m251.30852 231.29428l72.0117 0l0 27.1875l-72.0117 0l0 -27.1875z" fill-rule="nonzero"/><path fill="#dadada" d="m262.621 242.1185l0 -0.328125q0 -0.359375 0.140625 -0.515625q0.140625 -0.15625 0.34375 -0.15625q0.234375 0 0.375 0.15625q0.140625 0.15625 0.140625 0.515625l0 2.234375q-0.015625 0.359375 -0.15625 0.515625q-0.125 0.140625 -0.359375 0.140625q-0.1875 0 -0.328125 -0.125q-0.140625 -0.140625 -0.15625 -0.453125q-0.078125 -0.828125 -1.109375 -1.578125q-1.015625 -0.75 -2.75 -0.75q-2.1875 0 -3.3281097 1.375q-1.140625 1.359375 -1.140625 3.125q0 1.921875 1.25 3.171875q1.2656097 1.234375 3.2499847 1.234375q1.15625 0 2.34375 -0.421875q1.1875 -0.421875 2.15625 -1.359375q0.234375 -0.234375 0.421875 -0.234375q0.203125 0 0.328125 0.140625q0.140625 0.125 0.140625 0.328125q0 0.5 -1.171875 1.265625q-1.921875 1.265625 -4.265625 1.265625q-2.375 0 -3.9062347 -1.515625q-1.53125 -1.53125 -1.53125 -3.859375q0 -2.375 1.5625 -3.9375q1.5781097 -1.578125 3.9531097 -1.578125q2.265625 0 3.796875 1.34375zm15.792969 4.109375q0 2.25 -1.609375 3.84375q-1.609375 1.59375 -3.890625 1.59375q-2.296875 0 -3.90625 -1.59375q-1.59375 -1.609375 -1.59375 -3.84375q0 -2.25 1.59375 -3.84375q1.609375 -1.609375 3.90625 -1.609375q2.28125 0 3.890625 1.59375q1.609375 1.59375 1.609375 3.859375zm-1.0 0q0 -1.859375 -1.3125 -3.15625q-1.3125 -1.296875 -3.1875 -1.296875q-1.875 0 -3.203125 1.3125q-1.3125 1.296875 -1.3125 3.140625q0 1.828125 1.3125 3.140625q1.328125 1.3125 3.203125 1.3125q1.875 0 3.1875 -1.3125q1.3125 -1.3125 1.3125 -3.140625zm10.402344 -9.65625l0 13.71875l3.859375 0q0.375 0 0.515625 0.140625q0.15625 0.125 0.15625 0.34375q0 0.21875 -0.15625 0.359375q-0.140625 0.140625 -0.515625 0.140625l-8.71875 0q-0.34375 0 -0.5 -0.140625q-0.15625 -0.140625 -0.15625 -0.359375q0 -0.21875 0.15625 -0.34375q0.15625 -0.140625 0.5 -0.140625l3.875 0l0 -12.734375l-2.84375 0q-0.34375 0 -0.5 -0.140625q-0.15625 -0.140625 -0.15625 -0.359375q0 -0.203125 0.140625 -0.34375q0.15625 -0.140625 0.515625 -0.140625l3.828125 0zm19.402344 9.65625q0 2.25 -1.609375 3.84375q-1.609375 1.59375 -3.890625 1.59375q-2.296875 0 -3.90625 -1.59375q-1.59375 -1.609375 -1.59375 -3.84375q0 -2.25 1.59375 -3.84375q1.609375 -1.609375 3.90625 -1.609375q2.28125 0 3.890625 1.59375q1.609375 1.59375 1.609375 3.859375zm-1.0 0q0 -1.859375 -1.3125 -3.15625q-1.3125 -1.296875 -3.1875 -1.296875q-1.875 0 -3.203125 1.3125q-1.3125 1.296875 -1.3125 3.140625q0 1.828125 1.3125 3.140625q1.328125 1.3125 3.203125 1.3125q1.875 0 3.1875 -1.3125q1.3125 -1.3125 1.3125 -3.140625zm8.730469 -5.109375l0 2.484375q1.921875 -1.734375 2.875 -2.21875q0.953125 -0.5 1.765625 -0.5q0.875 0 1.625 0.59375q0.765625 0.578125 0.765625 0.890625q0 0.21875 -0.15625 0.375q-0.140625 0.140625 -0.359375 0.140625q-0.125 0 -0.203125 -0.03125q-0.078125 -0.046875 -0.3125 -0.28125q-0.40625 -0.40625 -0.71875 -0.546875q-0.296875 -0.15625 -0.59375 -0.15625q-0.640625 0 -1.546875 0.515625q-0.90625 0.515625 -3.140625 2.515625l0 5.390625l4.359375 0q0.359375 0 0.5 0.140625q0.15625 0.125 0.15625 0.34375q0 0.21875 -0.15625 0.359375q-0.140625 0.140625 -0.5 0.140625l-7.734375 0q-0.34375 0 -0.5 -0.125q-0.15625 -0.140625 -0.15625 -0.359375q0 -0.203125 0.140625 -0.328125q0.15625 -0.140625 0.515625 -0.140625l2.390625 0l0 -8.203125l-1.828125 0q-0.34375 0 -0.5 -0.140625q-0.15625 -0.140625 -0.15625 -0.359375q0 -0.21875 0.140625 -0.359375q0.15625 -0.140625 0.515625 -0.140625l2.8125 0z" fill-rule="nonzero"/><path fill="#010000" fill-opacity="0.0" d="m323.32022 231.29428l14.402344 0l0 27.1875l-14.402344 0l0 -27.1875z" fill-rule="nonzero"/><path fill="#b4b4b4" d="m335.89835 243.13412l-10.734375 0q-0.359375 0 -0.515625 -0.140625q-0.140625 -0.140625 -0.140625 -0.375q0 -0.203125 0.140625 -0.34375q0.15625 -0.140625 0.515625 -0.140625l10.734375 0q0.34375 0 0.5 0.140625q0.15625 0.140625 0.15625 0.359375q0 0.21875 -0.15625 0.359375q-0.15625 0.140625 -0.5 0.140625zm0 3.515625l-10.734375 0q-0.359375 0 -0.515625 -0.125q-0.140625 -0.140625 -0.140625 -0.359375q0 -0.21875 0.140625 -0.359375q0.15625 -0.140625 0.515625 -0.140625l10.734375 0q0.34375 0 0.5 0.140625q0.15625 0.140625 0.15625 0.359375q0 0.21875 -0.15625 0.359375q-0.15625 0.125 -0.5 0.125z" fill-rule="nonzero"/><path fill="#000000" fill-opacity="0.0" d="m337.72256 231.29428l14.402344 0l0 27.1875l-14.402344 0l0 -27.1875z" fill-rule="nonzero"/><path fill="#d69d85" d="m340.84756 236.806l3.109375 0l-0.8125 5.703125q-0.078125 0.4375 -0.265625 0.625q-0.1875 0.1875 -0.484375 0.1875q-0.28125 0 -0.46875 -0.1875q-0.1875 -0.1875 -0.265625 -0.625l-0.8125 -5.703125zm5.015625 0l3.125 0l-0.828125 5.703125q-0.0625 0.4375 -0.25 0.625q-0.1875 0.1875 -0.46875 0.1875q-0.3125 0 -0.5 -0.1875q-0.1875 -0.1875 -0.234375 -0.625l-0.84375 -5.703125z" fill-rule="nonzero"/><path fill="#010000" fill-opacity="0.0" d="m352.1249 231.29428l100.81641 0l0 27.1875l-100.81641 0l0 -27.1875z" fill-rule="nonzero"/><path fill="#d69d85" d="m361.4999 242.60287l-0.203125 3.09375l1.875 0q0.359375 0 0.5 0.140625q0.15625 0.125 0.15625 0.34375q0 0.234375 -0.15625 0.375q-0.140625 0.125 -0.5 0.125l-1.953125 0l-0.390625 5.484375q-0.015625 0.359375 -0.15625 0.5q-0.125 0.140625 -0.328125 0.140625l-0.203125 -0.046875q-0.296875 -0.1875 -0.296875 -0.484375l0 -0.171875l0.390625 -5.421875l-2.21875 0l-0.375 5.484375q-0.03125 0.359375 -0.171875 0.5q-0.140625 0.140625 -0.328125 0.140625l-0.203125 -0.046875q-0.296875 -0.1875 -0.296875 -0.484375l0.015625 -0.171875l0.375 -5.421875l-2.0625 0q-0.34375 0 -0.5 -0.125q-0.15625 -0.140625 -0.15625 -0.375q0 -0.21875 0.15625 -0.34375q0.15625 -0.140625 0.5 -0.140625l2.125 0l0.21875 -3.09375l-1.828125 0q-0.375 0 -0.53125 -0.125q-0.140625 -0.140625 -0.140625 -0.375q0 -0.21875 0.140625 -0.34375q0.15625 -0.140625 0.53125 -0.140625l1.890625 0l0.390625 -5.484375q0.015625 -0.34375 0.15625 -0.484375q0.140625 -0.15625 0.328125 -0.15625l0.21875 0.046875q0.296875 0.1875 0.296875 0.46875l-0.015625 0.1875l-0.375 5.421875l2.21875 0l0.375 -5.484375q0.03125 -0.34375 0.15625 -0.484375q0.140625 -0.15625 0.34375 -0.15625l0.203125 0.046875q0.296875 0.1875 0.296875 0.46875l-0.015625 0.1875l-0.375 5.421875l2.09375 0q0.34375 0 0.5 0.140625q0.15625 0.125 0.15625 0.34375q0 0.234375 -0.15625 0.375q-0.15625 0.125 -0.5 0.125l-2.171875 0zm-0.984375 0l-2.21875 0l-0.21875 3.09375l2.234375 0l0.203125 -3.09375zm17.730469 0.109375l0 2.4375q0 3.171875 -1.515625 5.015625q-1.171875 1.46875 -2.984375 1.46875q-0.859375 0 -1.640625 -0.359375q-0.765625 -0.34375 -1.296875 -0.96875q-0.34375 -0.375 -0.75 -1.234375q-0.40625 -0.859375 -0.578125 -1.578125q-0.265625 -1.0 -0.265625 -2.34375l0 -2.4375q0 -3.1875 1.515625 -5.046875q1.171875 -1.453125 2.984375 -1.453125q0.875 0 1.640625 0.34375q0.765625 0.34375 1.296875 0.96875q0.359375 0.40625 0.75 1.265625q0.40625 0.84375 0.59375 1.546875q0.25 1.015625 0.25 2.375zm-0.984375 0.125q0 -1.390625 -0.390625 -2.59375q-0.390625 -1.203125 -0.890625 -1.921875q-0.28125 -0.40625 -0.75 -0.703125q-0.671875 -0.40625 -1.5 -0.40625q-1.65625 0 -2.59375 1.6875q-0.9375 1.6875 -0.9375 3.9375l0 2.171875q0 1.390625 0.390625 2.59375q0.390625 1.203125 0.890625 1.921875q0.28125 0.40625 0.75 0.6875q0.671875 0.421875 1.515625 0.421875q1.640625 0 2.578125 -1.6875q0.9375 -1.6875 0.9375 -3.9375l0 -2.171875zm15.386719 -0.125l0 2.4375q0 3.171875 -1.515625 5.015625q-1.171875 1.46875 -2.984375 1.46875q-0.859375 0 -1.640625 -0.359375q-0.765625 -0.34375 -1.296875 -0.96875q-0.34375 -0.375 -0.75 -1.234375q-0.40625 -0.859375 -0.578125 -1.578125q-0.265625 -1.0 -0.265625 -2.34375l0 -2.4375q0 -3.1875 1.515625 -5.046875q1.171875 -1.453125 2.984375 -1.453125q0.875 0 1.640625 0.34375q0.765625 0.34375 1.296875 0.96875q0.359375 0.40625 0.75 1.265625q0.40625 0.84375 0.59375 1.546875q0.25 1.015625 0.25 2.375zm-0.984375 0.125q0 -1.390625 -0.390625 -2.59375q-0.390625 -1.203125 -0.890625 -1.921875q-0.28125 -0.40625 -0.75 -0.703125q-0.671875 -0.40625 -1.5 -0.40625q-1.65625 0 -2.59375 1.6875q-0.9375 1.6875 -0.9375 3.9375l0 2.171875q0 1.390625 0.390625 2.59375q0.390625 1.203125 0.890625 1.921875q0.28125 0.40625 0.75 0.6875q0.671875 0.421875 1.515625 0.421875q1.640625 0 2.578125 -1.6875q0.9375 -1.6875 0.9375 -3.9375l0 -2.171875zm8.496094 1.8125l0 5.640625l3.375 0q0.359375 0 0.5 0.140625q0.15625 0.125 0.15625 0.34375q0 0.21875 -0.15625 0.359375q-0.140625 0.140625 -0.5 0.140625l-5.6875 0q-0.34375 0 -0.5 -0.140625q-0.15625 -0.140625 -0.15625 -0.359375q0 -0.21875 0.15625 -0.34375q0.15625 -0.140625 0.5 -0.140625l1.328125 0l0 -11.75l-1.328125 0q-0.34375 0 -0.5 -0.125q-0.15625 -0.140625 -0.15625 -0.359375q0 -0.21875 0.1875 -0.375q0.125 -0.125 0.46875 -0.125l10.84375 0l0 3.390625q0 0.359375 -0.140625 0.515625q-0.140625 0.140625 -0.34375 0.140625q-0.234375 0 -0.375 -0.140625q-0.140625 -0.15625 -0.140625 -0.515625l0 -2.40625l-7.53125 0l0 5.125l3.53125 0l0 -1.109375q0 -0.359375 0.140625 -0.5q0.140625 -0.15625 0.359375 -0.15625q0.21875 0 0.359375 0.15625q0.140625 0.140625 0.140625 0.5l0 3.203125q0 0.359375 -0.140625 0.515625q-0.140625 0.140625 -0.359375 0.140625q-0.21875 0 -0.359375 -0.140625q-0.140625 -0.15625 -0.140625 -0.515625l0 -1.109375l-3.53125 0zm14.402344 0l0 5.640625l3.375 0q0.359375 0 0.5 0.140625q0.15625 0.125 0.15625 0.34375q0 0.21875 -0.15625 0.359375q-0.140625 0.140625 -0.5 0.140625l-5.6875 0q-0.34375 0 -0.5 -0.140625q-0.15625 -0.140625 -0.15625 -0.359375q0 -0.21875 0.15625 -0.34375q0.15625 -0.140625 0.5 -0.140625l1.328125 0l0 -11.75l-1.328125 0q-0.34375 0 -0.5 -0.125q-0.15625 -0.140625 -0.15625 -0.359375q0 -0.21875 0.1875 -0.375q0.125 -0.125 0.46875 -0.125l10.84375 0l0 3.390625q0 0.359375 -0.140625 0.515625q-0.140625 0.140625 -0.34375 0.140625q-0.234375 0 -0.375 -0.140625q-0.140625 -0.15625 -0.140625 -0.515625l0 -2.40625l-7.53125 0l0 5.125l3.53125 0l0 -1.109375q0 -0.359375 0.140625 -0.5q0.140625 -0.15625 0.359375 -0.15625q0.21875 0 0.359375 0.15625q0.140625 0.140625 0.140625 0.5l0 3.203125q0 0.359375 -0.140625 0.515625q-0.140625 0.140625 -0.359375 0.140625q-0.21875 0 -0.359375 -0.140625q-0.140625 -0.15625 -0.140625 -0.515625l0 -1.109375l-3.53125 0zm21.292969 -1.9375l0 2.4375q0 3.171875 -1.515625 5.015625q-1.171875 1.46875 -2.984375 1.46875q-0.859375 0 -1.640625 -0.359375q-0.765625 -0.34375 -1.296875 -0.96875q-0.34375 -0.375 -0.75 -1.234375q-0.40625 -0.859375 -0.578125 -1.578125q-0.265625 -1.0 -0.265625 -2.34375l0 -2.4375q0 -3.1875 1.515625 -5.046875q1.171875 -1.453125 2.984375 -1.453125q0.875 0 1.640625 0.34375q0.765625 0.34375 1.296875 0.96875q0.359375 0.40625 0.75 1.265625q0.40625 0.84375 0.59375 1.546875q0.25 1.015625 0.25 2.375zm-0.984375 0.125q0 -1.390625 -0.390625 -2.59375q-0.390625 -1.203125 -0.890625 -1.921875q-0.28125 -0.40625 -0.75 -0.703125q-0.671875 -0.40625 -1.5 -0.40625q-1.65625 0 -2.59375 1.6875q-0.9375 1.6875 -0.9375 3.9375l0 2.171875q0 1.390625 0.390625 2.59375q0.390625 1.203125 0.890625 1.921875q0.28125 0.40625 0.75 0.6875q0.671875 0.421875 1.515625 0.421875q1.640625 0 2.578125 -1.6875q0.9375 -1.6875 0.9375 -3.9375l0 -2.171875zm15.386719 -0.125l0 2.4375q0 3.171875 -1.515625 5.015625q-1.171875 1.46875 -2.984375 1.46875q-0.859375 0 -1.640625 -0.359375q-0.765625 -0.34375 -1.296875 -0.96875q-0.34375 -0.375 -0.75 -1.234375q-0.40625 -0.859375 -0.578125 -1.578125q-0.265625 -1.0 -0.265625 -2.34375l0 -2.4375q0 -3.1875 1.515625 -5.046875q1.171875 -1.453125 2.984375 -1.453125q0.875 0 1.640625 0.34375q0.765625 0.34375 1.296875 0.96875q0.359375 0.40625 0.75 1.265625q0.40625 0.84375 0.59375 1.546875q0.25 1.015625 0.25 2.375zm-0.984375 0.125q0 -1.390625 -0.390625 -2.59375q-0.390625 -1.203125 -0.890625 -1.921875q-0.28125 -0.40625 -0.75 -0.703125q-0.671875 -0.40625 -1.5 -0.40625q-1.65625 0 -2.59375 1.6875q-0.9375 1.6875 -0.9375 3.9375l0 2.171875q0 1.390625 0.390625 2.59375q0.390625 1.203125 0.890625 1.921875q0.28125 0.40625 0.75 0.6875q0.671875 0.421875 1.515625 0.421875q1.640625 0 2.578125 -1.6875q0.9375 -1.6875 0.9375 -3.9375l0 -2.171875z" fill-rule="nonzero"/><path fill="#000000" fill-opacity="0.0" d="m452.9413 231.29428l14.402344 0l0 27.1875l-14.402344 0l0 -27.1875z" fill-rule="nonzero"/><path fill="#d69d85" d="m456.0663 236.806l3.109375 0l-0.8125 5.703125q-0.078125 0.4375 -0.265625 0.625q-0.1875 0.1875 -0.484375 0.1875q-0.28125 0 -0.46875 -0.1875q-0.1875 -0.1875 -0.265625 -0.625l-0.8125 -5.703125zm5.015625 0l3.125 0l-0.828125 5.703125q-0.0625 0.4375 -0.25 0.625q-0.1875 0.1875 -0.46875 0.1875q-0.3125 0 -0.5 -0.1875q-0.1875 -0.1875 -0.234375 -0.625l-0.84375 -5.703125z" fill-rule="nonzero"/><path fill="#010000" fill-opacity="0.0" d="m467.34366 231.29428l14.402344 0l0 27.1875l-14.402344 0l0 -27.1875z" fill-rule="nonzero"/><path fill="#d4d4d4" d="m474.32803 241.1185l0.4375 0q0.65625 0 1.109375 0.46875q0.46875 0.46875 0.46875 1.125q0 0.6875 -0.46875 1.140625q-0.46875 0.453125 -1.109375 0.453125l-0.4375 0q-0.65625 0 -1.125 -0.46875q-0.453125 -0.46875 -0.453125 -1.109375q0 -0.6875 0.46875 -1.140625q0.484375 -0.46875 1.109375 -0.46875zm-1.703125 6.609375l3.09375 0l-3.328125 5.453125q-0.234375 0.390625 -0.390625 0.5q-0.140625 0.109375 -0.34375 0.109375q-0.28125 0 -0.46875 -0.1875q-0.1875 -0.171875 -0.1875 -0.421875q0 -0.140625 0.078125 -0.359375l1.546875 -5.09375z" fill-rule="nonzero"/><path fill="#010000" fill-opacity="0.0" d="m481.746 231.29428l0 0l0 27.1875l0 0l0 -27.1875z" fill-rule="nonzero"/></g></svg>